<svg width="512" height="454" viewBox="0 0 512 454" fill="none" xmlns="http://www.w3.org/2000/svg">
<g clip-path="url(#clip0)">
<path opacity="0.1" d="M229.375 175.656C209.364 169.174 188.206 163.741 166.584 164.301C134.795 165.127 104.23 179.952 89.156 201.863C76.4139 220.43 74.7131 242.252 69.1509 262.898C62.2979 288.335 49.2898 312.474 35.4065 336.081C27.9496 348.761 20.0827 361.706 18.7863 375.639C17.008 394.982 28.7196 414.32 47.1846 427.283C65.6496 440.245 90.2197 447.153 114.906 448.766C128.042 449.62 141.77 448.96 153.465 444.226C165.836 439.236 174.883 430.105 187.303 425.17C198.816 420.602 212.234 420.014 225.148 420.685C241.872 421.532 258.435 424.372 274.487 429.145C292.487 434.534 309.212 442.291 327.173 447.757C345.134 453.224 365.211 456.317 383.615 451.921C400.894 447.796 414.6 437.628 426.96 427.327C446.878 410.769 465.398 392.597 482.333 372.994C493.496 360.026 503.895 346.332 508.881 331.18C518.404 302.206 505.646 269.402 477.098 249.448C453.447 232.91 421.631 225.608 390.474 221.173C362.059 217.087 329.184 216.682 303.068 206.276C278.16 196.324 255.501 184.116 229.375 175.656Z" fill="#4CBDB1"/>
<path opacity="0.1" d="M484.449 274.391C491.52 274.391 497.252 273.605 497.252 272.634C497.252 271.663 491.52 270.876 484.449 270.876C477.378 270.876 471.646 271.663 471.646 272.634C471.646 273.605 477.378 274.391 484.449 274.391Z" fill="#4CBDB1"/>
<path opacity="0.1" d="M435.403 279.37C442.474 279.37 448.206 278.583 448.206 277.613C448.206 276.642 442.474 275.855 435.403 275.855C428.332 275.855 422.6 276.642 422.6 277.613C422.6 278.583 428.332 279.37 435.403 279.37Z" fill="#4CBDB1"/>
<path opacity="0.1" d="M377.632 272.634C384.703 272.634 390.435 271.847 390.435 270.876C390.435 269.906 384.703 269.119 377.632 269.119C370.561 269.119 364.829 269.906 364.829 270.876C364.829 271.847 370.561 272.634 377.632 272.634Z" fill="#4CBDB1"/>
<path opacity="0.1" d="M455.032 293.036C460.059 293.036 464.134 292.475 464.134 291.783C464.134 291.091 460.059 290.531 455.032 290.531C450.005 290.531 445.929 291.091 445.929 291.783C445.929 292.475 450.005 293.036 455.032 293.036Z" fill="#4CBDB1"/>
<path opacity="0.1" d="M404.13 291.784C409.157 291.784 413.232 291.223 413.232 290.531C413.232 289.839 409.157 289.278 404.13 289.278C399.103 289.278 395.027 289.839 395.027 290.531C395.027 291.223 399.103 291.784 404.13 291.784Z" fill="#4CBDB1"/>
<path d="M435.126 277.213C435.126 277.213 453.087 218.301 432.318 194.705C416.805 177.053 399.144 179.182 391.249 181.349C389.206 181.894 387.305 182.876 385.678 184.229C384.052 185.582 382.739 187.272 381.831 189.183C379.061 195.143 379.571 204.818 399.061 216.111C431.697 235.022 433.73 260.964 433.73 260.964L435.126 277.213Z" fill="#4CBDB1"/>
<path d="M394.058 189.704C394.058 189.704 446.999 206.27 435.126 277.213L394.058 189.704Z" fill="#4CBDB1"/>
<path fill-rule="evenodd" clip-rule="evenodd" d="M393.929 190.117C393.948 190.056 393.985 189.937 394.058 189.704C394.207 189.227 394.208 189.227 394.209 189.228L394.211 189.228L394.219 189.231L394.251 189.241C394.278 189.25 394.317 189.263 394.369 189.28C394.472 189.315 394.623 189.367 394.819 189.437C395.211 189.579 395.781 189.794 396.501 190.093C397.941 190.691 399.98 191.623 402.388 192.965C407.202 195.646 413.495 199.966 419.415 206.52C431.272 219.646 441.58 241.678 435.62 277.296L434.633 277.131C440.545 241.805 430.319 220.083 418.673 207.19C412.842 200.735 406.642 196.479 401.901 193.838C399.531 192.518 397.527 191.602 396.118 191.017C395.413 190.724 394.858 190.514 394.48 190.378C394.291 190.31 394.147 190.261 394.05 190.228C394.002 190.212 393.966 190.2 393.942 190.192L393.916 190.184L393.91 190.182L393.909 190.182C393.909 190.182 393.909 190.182 393.929 190.117Z" fill="#4CBDB1"/>
<path d="M424.972 195.642C424.972 195.642 417.681 200.56 419.986 207.945L424.972 195.642Z" fill="#4CBDB1"/>
<path fill-rule="evenodd" clip-rule="evenodd" d="M424.691 195.228C424.692 195.228 424.692 195.228 424.971 195.642C425.251 196.057 425.251 196.057 425.251 196.057L425.251 196.057L425.249 196.058L425.236 196.067C425.224 196.076 425.206 196.088 425.181 196.106C425.132 196.141 425.059 196.194 424.966 196.265C424.78 196.408 424.514 196.621 424.201 196.899C423.573 197.458 422.761 198.276 422.021 199.314C420.542 201.39 419.373 204.303 420.463 207.796L419.508 208.094C418.293 204.202 419.617 200.964 421.207 198.734C422.002 197.62 422.869 196.747 423.536 196.153C423.87 195.855 424.156 195.626 424.359 195.471C424.461 195.393 424.542 195.333 424.599 195.293C424.628 195.272 424.65 195.257 424.665 195.246L424.684 195.233L424.689 195.23L424.691 195.228L424.691 195.228Z" fill="#4CBDB1"/>
<path d="M399.371 200.017C399.371 200.017 403.803 195.481 409.249 197.982L399.371 200.017Z" fill="#4CBDB1"/>
<path fill-rule="evenodd" clip-rule="evenodd" d="M399.728 200.366C399.728 200.366 399.729 200.366 399.371 200.017C399.013 199.667 399.013 199.667 399.014 199.667L399.014 199.666L399.015 199.665L399.019 199.661L399.031 199.649C399.042 199.639 399.056 199.624 399.075 199.606C399.112 199.57 399.167 199.519 399.237 199.456C399.377 199.329 399.581 199.153 399.843 198.951C400.366 198.548 401.122 198.037 402.059 197.607C403.936 196.745 406.563 196.199 409.457 197.527L409.04 198.436C406.488 197.265 404.177 197.735 402.476 198.516C401.624 198.907 400.933 199.374 400.454 199.743C400.215 199.927 400.031 200.086 399.907 200.198C399.846 200.253 399.799 200.297 399.769 200.326C399.754 200.341 399.743 200.351 399.736 200.358L399.729 200.365L399.728 200.366ZM399.728 200.366C399.728 200.366 399.728 200.366 399.728 200.366L399.728 200.366Z" fill="#4CBDB1"/>
<path d="M420.296 222.831C420.296 222.831 428.118 218.861 430.14 223.834L420.296 222.831Z" fill="#4CBDB1"/>
<path fill-rule="evenodd" clip-rule="evenodd" d="M420.522 223.277C420.522 223.277 420.522 223.277 420.296 222.831C420.069 222.385 420.07 222.385 420.07 222.385L420.07 222.384L420.072 222.384L420.077 222.381L420.096 222.371C420.113 222.363 420.136 222.352 420.167 222.337C420.228 222.308 420.317 222.266 420.429 222.215C420.655 222.112 420.977 221.973 421.37 221.822C422.153 221.52 423.228 221.167 424.377 220.975C425.519 220.783 426.777 220.742 427.902 221.103C429.051 221.473 430.038 222.256 430.604 223.646L429.677 224.023C429.231 222.926 428.483 222.341 427.596 222.055C426.686 221.763 425.608 221.782 424.543 221.961C423.483 222.139 422.476 222.467 421.729 222.755C421.357 222.898 421.053 223.03 420.842 223.125C420.737 223.173 420.656 223.212 420.601 223.238C420.574 223.251 420.553 223.261 420.54 223.268L420.526 223.275L420.522 223.276L420.522 223.277Z" fill="#4CBDB1"/>
<path d="M439.658 231.114C439.658 231.114 433.78 230.648 433.675 233.459L439.658 231.114Z" fill="#4CBDB1"/>
<path fill-rule="evenodd" clip-rule="evenodd" d="M439.697 230.615C439.698 230.615 439.698 230.615 439.658 231.114C439.619 231.612 439.619 231.612 439.619 231.612L439.616 231.612L439.606 231.611L439.561 231.608C439.52 231.606 439.46 231.602 439.383 231.599C439.228 231.592 439.006 231.585 438.738 231.585C438.201 231.585 437.491 231.614 436.784 231.726C436.07 231.839 435.401 232.031 434.918 232.331C434.452 232.621 434.193 232.985 434.175 233.478L433.175 233.44C433.209 232.528 433.725 231.895 434.39 231.482C435.039 231.079 435.86 230.86 436.628 230.738C437.404 230.615 438.17 230.585 438.738 230.585C439.023 230.585 439.261 230.592 439.428 230.6C439.512 230.604 439.578 230.607 439.624 230.61L439.677 230.614L439.692 230.615L439.696 230.615L439.697 230.615Z" fill="#4CBDB1"/>
<path d="M435.852 277.685C435.852 277.685 414.8 234.867 409.044 235.804C406.274 236.248 405.033 238.953 404.462 241.664C403.753 245.173 404.154 248.817 405.609 252.087C408.595 258.94 416.611 271.952 435.852 277.685Z" fill="#4CBDB1"/>
<path d="M409.199 243.932C409.199 243.932 431.276 275.966 435.542 277.374L409.199 243.932Z" fill="#4CBDB1"/>
<path fill-rule="evenodd" clip-rule="evenodd" d="M408.788 244.216C408.787 244.216 408.787 244.216 409.199 243.932C409.611 243.648 409.611 243.648 409.611 243.648L409.859 244.007C410.022 244.242 410.261 244.586 410.566 245.025C411.178 245.903 412.056 247.159 413.124 248.671C415.259 251.694 418.149 255.739 421.173 259.828C424.197 263.917 427.35 268.044 430.01 271.234C431.341 272.83 432.542 274.184 433.539 275.179C434.037 275.677 434.478 276.078 434.853 276.374C435.237 276.676 435.517 276.839 435.699 276.899L435.385 277.849C435.033 277.733 434.642 277.481 434.234 277.159C433.817 276.831 433.345 276.4 432.832 275.887C431.804 274.86 430.581 273.48 429.242 271.875C426.563 268.663 423.397 264.517 420.369 260.422C417.34 256.326 414.444 252.275 412.307 249.248C411.238 247.734 410.358 246.476 409.746 245.597C409.439 245.157 409.2 244.812 409.037 244.577L408.788 244.216Z" fill="#4CBDB1"/>
<path fill-rule="evenodd" clip-rule="evenodd" d="M412.324 249.433H407.171V248.433H412.324V249.433Z" fill="#4CBDB1"/>
<path fill-rule="evenodd" clip-rule="evenodd" d="M421.399 261.496L413.322 261.153L413.364 260.154L421.441 260.497L421.399 261.496Z" fill="#4CBDB1"/>
<path fill-rule="evenodd" clip-rule="evenodd" d="M416.892 255.384L417.767 251.176L418.746 251.38L417.871 255.588L416.892 255.384Z" fill="#4CBDB1"/>
<path fill-rule="evenodd" clip-rule="evenodd" d="M426.189 267.896L426.344 264.07L427.343 264.111L427.188 267.936L426.189 267.896Z" fill="#4CBDB1"/>
<path d="M435.232 277.685C435.232 277.685 456.284 234.867 462.04 235.804C464.81 236.248 466.051 238.953 466.622 241.664C467.331 245.173 466.93 248.817 465.475 252.087C462.489 258.94 454.472 271.952 435.232 277.685Z" fill="#4CBDB1"/>
<path d="M461.885 243.932C461.885 243.932 439.808 275.966 435.542 277.374L461.885 243.932Z" fill="#4CBDB1"/>
<path fill-rule="evenodd" clip-rule="evenodd" d="M461.473 243.648C461.473 243.648 461.473 243.648 461.885 243.932C462.296 244.216 462.296 244.216 462.296 244.216L462.047 244.577C461.884 244.812 461.644 245.157 461.338 245.597C460.725 246.476 459.846 247.734 458.777 249.248C456.639 252.275 453.744 256.326 450.715 260.422C447.687 264.517 444.52 268.663 441.841 271.875C440.503 273.48 439.279 274.86 438.252 275.887C437.738 276.4 437.267 276.831 436.85 277.159C436.442 277.481 436.05 277.733 435.698 277.849L435.385 276.899C435.566 276.839 435.847 276.676 436.231 276.374C436.606 276.078 437.047 275.677 437.545 275.179C438.541 274.184 439.743 272.83 441.073 271.234C443.734 268.044 446.887 263.917 449.911 259.828C452.934 255.739 455.825 251.694 457.96 248.671C459.028 247.159 459.906 245.903 460.517 245.025C460.823 244.586 461.062 244.242 461.225 244.007L461.473 243.648Z" fill="#4CBDB1"/>
<path fill-rule="evenodd" clip-rule="evenodd" d="M458.76 248.433H463.913V249.433H458.76V248.433Z" fill="#4CBDB1"/>
<path fill-rule="evenodd" clip-rule="evenodd" d="M449.642 260.497L457.719 260.154L457.762 261.153L449.685 261.496L449.642 260.497Z" fill="#4CBDB1"/>
<path fill-rule="evenodd" clip-rule="evenodd" d="M453.213 255.588L452.337 251.38L453.316 251.176L454.192 255.384L453.213 255.588Z" fill="#4CBDB1"/>
<path fill-rule="evenodd" clip-rule="evenodd" d="M443.895 267.937L443.735 264.111L444.734 264.069L444.894 267.895L443.895 267.937Z" fill="#4CBDB1"/>
<path d="M399.116 287.686C398.545 287.218 398.128 286.588 397.919 285.879C397.827 285.522 397.859 285.144 398.012 284.808C398.164 284.472 398.426 284.198 398.756 284.033C399.526 283.739 400.346 284.271 400.972 284.814C401.598 285.358 402.307 285.962 403.121 285.851C402.703 285.471 402.39 284.988 402.214 284.451C402.037 283.914 402.002 283.34 402.113 282.785C402.147 282.555 402.243 282.339 402.39 282.159C402.817 281.704 403.592 281.904 404.102 282.259C405.725 283.406 406.179 285.613 406.191 287.598C406.27 286.861 406.27 286.117 406.191 285.38C406.159 285.013 406.218 284.643 406.361 284.304C406.505 283.965 406.73 283.666 407.016 283.434C407.401 283.223 407.835 283.12 408.274 283.135C408.636 283.083 409.005 283.108 409.357 283.208C409.71 283.309 410.037 283.482 410.318 283.717C410.933 284.382 410.772 285.496 410.235 286.228C409.63 286.898 408.917 287.461 408.124 287.891C407.517 288.251 407 288.744 406.612 289.333C406.568 289.415 406.531 289.5 406.501 289.588H401.925C400.907 289.083 399.962 288.444 399.116 287.686Z" fill="#4CBDB1"/>
<path d="M479.264 270.438C478.69 269.972 478.273 269.341 478.067 268.631C477.975 268.275 478.008 267.898 478.16 267.563C478.313 267.228 478.575 266.955 478.904 266.79C479.674 266.497 480.494 267.029 481.12 267.567C481.746 268.104 482.461 268.72 483.275 268.603C482.855 268.224 482.541 267.742 482.363 267.205C482.185 266.667 482.15 266.093 482.261 265.537C482.295 265.308 482.393 265.092 482.544 264.916C482.97 264.462 483.74 264.656 484.25 265.016C485.873 266.158 486.328 268.343 486.339 270.355C486.42 269.618 486.42 268.875 486.339 268.138C486.307 267.77 486.366 267.401 486.51 267.062C486.653 266.723 486.878 266.424 487.164 266.192C487.551 265.986 487.984 265.885 488.422 265.898C488.782 265.841 489.151 265.861 489.503 265.957C489.855 266.052 490.183 266.221 490.466 266.452C491.086 267.112 490.926 268.226 490.383 268.958C489.782 269.641 489.068 270.215 488.272 270.655C487.665 271.014 487.148 271.507 486.76 272.096C486.714 272.177 486.677 272.263 486.649 272.351H482.073C481.056 271.842 480.111 271.198 479.264 270.438Z" fill="#4CBDB1"/>
<path d="M452.55 287.686C451.979 287.218 451.562 286.588 451.353 285.879C451.261 285.522 451.293 285.144 451.445 284.808C451.598 284.472 451.86 284.198 452.19 284.033C452.96 283.739 453.78 284.271 454.406 284.814C455.032 285.358 455.741 285.962 456.555 285.851C456.136 285.471 455.823 284.989 455.645 284.452C455.468 283.914 455.432 283.34 455.541 282.785C455.58 282.556 455.677 282.34 455.824 282.159C456.25 281.704 457.026 281.904 457.536 282.259C459.159 283.406 459.613 285.613 459.624 287.598C459.713 286.861 459.722 286.118 459.652 285.38C459.62 285.013 459.679 284.643 459.823 284.304C459.967 283.965 460.192 283.666 460.478 283.434C460.862 283.223 461.297 283.12 461.735 283.135C462.098 283.083 462.467 283.108 462.819 283.208C463.171 283.309 463.498 283.482 463.779 283.717C464.394 284.382 464.234 285.496 463.696 286.228C463.092 286.898 462.378 287.461 461.586 287.891C460.979 288.251 460.461 288.744 460.073 289.333C460.03 289.415 459.992 289.5 459.962 289.588H455.386C454.359 289.086 453.405 288.446 452.55 287.686Z" fill="#4CBDB1"/>
<path d="M376.801 252.825C376.801 252.825 375.083 255.07 377.593 258.458C380.103 261.845 382.164 264.711 381.333 266.824C381.333 266.824 377.549 260.531 374.468 260.442C371.388 260.354 373.41 256.611 376.801 252.825Z" fill="#4CBDB1"/>
<path opacity="0.1" d="M376.801 252.825C376.649 253.041 376.53 253.278 376.446 253.529C373.444 257.06 371.842 260.359 374.729 260.442C377.421 260.52 380.651 265.332 381.421 266.541C381.421 266.635 381.366 266.729 381.333 266.818C381.333 266.818 377.549 260.526 374.468 260.437C371.388 260.348 373.41 256.611 376.801 252.825Z" fill="#4CBDB1"/>
<path d="M373.61 255.685C373.61 256.478 373.698 257.116 373.809 257.116C373.92 257.116 374.003 256.478 374.003 255.685C374.003 254.893 373.892 255.27 373.787 255.27C373.682 255.27 373.61 254.898 373.61 255.685Z" fill="#4CBDB1"/>
<path d="M372.513 256.628C373.205 257.01 373.815 257.238 373.864 257.144C373.914 257.049 373.399 256.661 372.707 256.284C372.014 255.907 372.286 256.179 372.23 256.284C372.175 256.39 371.82 256.251 372.513 256.628Z" fill="#4CBDB1"/>
<path d="M385.859 252.825C385.859 252.825 387.576 255.07 385.066 258.458C382.557 261.845 380.496 264.711 381.332 266.824C381.332 266.824 385.111 260.531 388.191 260.442C391.271 260.354 389.249 256.611 385.859 252.825Z" fill="#4CBDB1"/>
<path opacity="0.1" d="M385.859 252.825C386.011 253.041 386.13 253.278 386.213 253.529C389.216 257.06 390.817 260.359 387.931 260.442C385.238 260.52 382.008 265.332 381.238 266.541C381.264 266.635 381.295 266.728 381.332 266.818C381.332 266.818 385.111 260.526 388.191 260.437C391.271 260.348 389.249 256.611 385.859 252.825Z" fill="#4CBDB1"/>
<path d="M389.05 255.685C389.05 256.478 388.961 257.116 388.85 257.116C388.74 257.116 388.656 256.478 388.656 255.685C388.656 254.893 388.767 255.27 388.873 255.27C388.978 255.27 389.05 254.898 389.05 255.685Z" fill="#4CBDB1"/>
<path d="M390.147 256.628C389.454 257.01 388.845 257.238 388.795 257.144C388.745 257.049 389.26 256.661 389.953 256.284C390.645 255.907 390.374 256.179 390.429 256.284C390.485 256.39 390.839 256.251 390.147 256.628Z" fill="#4CBDB1"/>
<path d="M388.501 266.53C388.501 266.53 383.709 266.386 382.263 265.354C380.817 264.323 374.884 263.092 374.507 264.745C374.13 266.397 367.305 272.961 372.712 273.005C378.119 273.05 385.299 272.163 386.74 271.281C388.18 270.4 388.501 266.53 388.501 266.53Z" fill="#4CBDB1"/>
<path opacity="0.2" d="M372.635 272.429C378.047 272.473 385.216 271.586 386.662 270.705C387.77 270.039 388.197 267.633 388.324 266.524H388.479C388.479 266.524 388.18 270.405 386.734 271.276C385.288 272.146 378.125 273.044 372.707 273C371.144 273 370.607 272.445 370.635 271.608C370.873 272.113 371.471 272.423 372.635 272.429Z" fill="#4CBDB1"/>
<path opacity="0.1" d="M71.461 45.5453C78.0791 45.5453 83.4441 40.1763 83.4441 33.5533C83.4441 26.9303 78.0791 21.5613 71.461 21.5613C64.8429 21.5613 59.4779 26.9303 59.4779 33.5533C59.4779 40.1763 64.8429 45.5453 71.461 45.5453Z" fill="#4CBDB1"/>
<path opacity="0.1" d="M278.72 26.6174C285.338 26.6174 290.703 21.2484 290.703 14.6254C290.703 8.00243 285.338 2.63342 278.72 2.63342C272.102 2.63342 266.737 8.00243 266.737 14.6254C266.737 21.2484 272.102 26.6174 278.72 26.6174Z" fill="#4CBDB1"/>
<path opacity="0.1" d="M468.826 73.9923C475.444 73.9923 480.81 68.6233 480.81 62.0003C480.81 55.3773 475.444 50.0083 468.826 50.0083C462.208 50.0083 456.843 55.3773 456.843 62.0003C456.843 68.6233 462.208 73.9923 468.826 73.9923Z" fill="#4CBDB1"/>
<path opacity="0.1" d="M20.0827 163.608C31.174 163.608 40.1653 154.61 40.1653 143.511C40.1653 132.411 31.174 123.413 20.0827 123.413C8.99132 123.413 0 132.411 0 143.511C0 154.61 8.99132 163.608 20.0827 163.608Z" fill="#4CBDB1"/>
<path opacity="0.1" d="M39.3344 262.848C50.4257 262.848 59.417 253.85 59.417 242.751C59.417 231.651 50.4257 222.653 39.3344 222.653C28.243 222.653 19.2517 231.651 19.2517 242.751C19.2517 253.85 28.243 262.848 39.3344 262.848Z" fill="#4CBDB1"/>
<path opacity="0.1" d="M415.459 175.312C426.55 175.312 435.542 166.314 435.542 155.214C435.542 144.115 426.55 135.117 415.459 135.117C404.368 135.117 395.376 144.115 395.376 155.214C395.376 166.314 404.368 175.312 415.459 175.312Z" fill="#4CBDB1"/>
<path d="M249.391 192.848C248.682 192.915 247.961 192.881 247.258 192.992C246.077 193.227 244.949 193.681 243.934 194.328C238.892 197.2 234.133 201.148 232.045 206.559C231.873 206.891 231.818 207.272 231.89 207.64C232.013 207.943 232.216 208.207 232.477 208.405L234.438 210.19C234.686 210.448 234.981 210.655 235.308 210.8C235.837 210.938 236.395 210.921 236.914 210.75C242.305 209.514 248.033 208.089 251.817 204.053C253.612 202.14 255.269 199.507 257.911 199.434C259.019 199.434 260.055 199.861 261.147 199.989C262.238 200.116 263.551 199.651 263.811 198.586C263.896 198.057 263.835 197.514 263.634 197.017L262.005 191.59C261.562 190.104 257.091 190.026 255.601 190.292C253.33 190.686 251.801 192.626 249.391 192.848Z" fill="#4CBDB1"/>
<path d="M268.581 223.424C268.504 225.281 268.653 227.161 268.349 229.001C268.081 230.453 267.617 231.861 266.969 233.187C265.973 235.32 264.707 237.315 263.202 239.125C261.8 240.788 260.122 242.352 258.044 243.006C255.967 243.66 253.413 243.189 252.116 241.437C251.058 240.012 251.008 238.11 251.086 236.331C251.274 231.956 251.961 227.521 253.922 223.607C254.764 221.944 255.834 220.358 256.692 218.678C258.487 215.191 259.512 211.055 262.609 208.649C264.552 209.547 266.63 210.119 268.759 210.34C269.584 210.428 271.944 210.484 272.221 211.543C272.41 212.258 270.858 214.259 270.559 214.964C269.377 217.635 268.706 220.505 268.581 223.424Z" fill="#4CBDB1"/>
<path d="M246.621 143.466C247.285 145.163 248.128 146.826 248.283 148.633C248.393 149.742 248.283 150.851 248.283 151.96C248.376 153.479 248.628 154.984 249.036 156.451L252.122 169.091C252.582 170.982 253.042 172.922 252.803 174.852C252.643 176.138 252.177 177.385 252.183 178.677C252.242 179.657 252.398 180.628 252.648 181.577C253.232 184.508 253.072 187.539 252.183 190.392C252.092 190.607 252.059 190.842 252.089 191.074C252.166 191.434 252.515 191.656 252.831 191.828C256.153 193.647 259.775 194.854 263.523 195.393C266.907 187.338 269.27 178.892 270.559 170.25C271.346 165.016 271.728 159.716 272.736 154.521C272.759 154.221 272.887 153.939 273.097 153.723C273.473 153.407 274.044 153.606 274.487 153.817C280.149 156.542 285.595 159.692 290.78 163.242C292.604 160.879 293.886 158.145 294.536 155.231C295.186 152.318 295.188 149.297 294.542 146.382C293.891 143.87 292.962 141.437 291.772 139.131C290.504 136.325 288.925 133.671 287.063 131.219C282.952 126.063 276.925 122.77 270.72 120.536C266.947 119.172 263.063 118.163 259.185 117.131C257.014 116.549 253.374 114.653 251.263 116.128C249.047 117.664 247.574 121.472 246.665 123.89C245.543 126.888 244.933 130.053 244.859 133.254C244.768 136.741 245.366 140.212 246.621 143.466Z" fill="#4CBDB1"/>
<path d="M291.157 158.707C289.999 159.971 290.974 161.989 290.753 163.697C290.608 164.468 290.332 165.208 289.938 165.887L284.636 176.304C283.75 177.867 283.086 179.547 282.664 181.294C281.938 185.053 283.429 189.278 281.523 192.598C280.908 193.668 279.955 194.589 279.7 195.797C279.512 196.679 279.7 197.599 279.606 198.492C279.479 199.54 278.919 200.482 278.609 201.491C278.367 202.461 278.195 203.447 278.094 204.441C277.421 208.68 275.203 212.52 271.867 215.219C269.955 216.84 267.5 217.676 264.997 217.558C262.526 217.348 260.072 215.668 259.568 213.239C259.396 212.413 259.429 211.493 258.914 210.822C258.183 209.863 256.643 209.824 255.939 208.843L258.665 204.352C259.512 202.96 260.377 201.508 260.515 199.883C260.681 197.893 259.723 195.908 260.066 193.94C260.36 192.249 261.573 190.841 261.939 189.167C262.393 187.088 261.485 184.986 260.991 182.913C259.784 177.807 261.136 172.484 262.482 167.389C264.271 160.647 266.105 153.8 269.728 147.84C276.958 151.738 283.606 155.48 291.157 158.707Z" fill="#4CBDB1"/>
<path d="M291.224 53.1019C291.656 54.2772 291.423 55.5801 291.34 56.8276C291.146 59.5996 291.733 62.3717 291.6 65.1826C291.467 67.9935 290.603 70.6769 290.005 73.4101C288.304 81.2108 288.714 89.3385 287.174 97.1724C285.274 106.875 280.415 115.912 279.457 125.758C279.152 128.885 279.191 132.234 277.479 134.873C267.306 130.392 257.69 124.739 248.826 118.03C250.776 103.554 252.704 89.0059 252.443 74.4025C252.317 72.6421 252.44 70.8726 252.809 69.1467C253.271 67.6969 253.935 66.3195 254.781 65.0551C256.925 61.5678 259.285 58.2191 261.64 54.876C263.147 52.736 264.775 50.4906 267.18 49.4871C269.584 48.4836 272.432 48.9327 275.052 49.4095C278.206 49.9861 281.357 50.5627 284.504 51.1393C286.47 51.4996 290.382 50.8121 291.224 53.1019Z" fill="#4CBDB1"/>
<path d="M215.364 108.571C214.071 107.277 212.662 106.106 211.153 105.073C213.12 102.678 212.732 99.2127 213.214 96.1468C213.609 94.1553 214.209 92.2101 215.004 90.3421C215.203 89.8154 215.486 89.2333 216.034 89.0947C216.371 89.053 216.713 89.1067 217.02 89.2499C218.682 89.8376 222.15 89.8043 223.441 90.8799C224.998 92.1883 223.574 94.9271 222.987 96.5626C222.571 97.6604 216.189 109.403 215.364 108.571Z" fill="#4CBDB1"/>
<path d="M220.189 212.108C221.024 213.46 221.569 214.97 221.79 216.544C221.923 218.118 221.347 219.842 220.006 220.674C218.666 221.506 216.743 221.229 215.148 220.73C211.764 219.628 208.65 217.824 206.01 215.436C203.371 213.047 201.264 210.128 199.83 206.869C199.325 205.705 198.888 204.469 197.996 203.57C197.333 202.988 196.598 202.494 195.808 202.101C193.63 200.87 191.531 199.251 190.522 196.956C189.514 194.661 189.968 191.595 192.057 190.231C192.708 189.855 193.427 189.612 194.173 189.517C194.919 189.422 195.676 189.476 196.4 189.677C197.844 190.087 199.227 190.689 200.511 191.467C202.661 192.637 205.287 193.646 207.159 195.204C208.821 196.574 210.311 198.425 211.73 200.039C213.354 201.895 214.876 203.838 216.289 205.86C216.743 206.453 220.572 211.571 220.189 212.108Z" fill="#4CBDB1"/>
<path d="M179.581 200.471C179.392 203.261 178.9 206.022 178.112 208.704C177.664 210.212 177.071 211.781 175.824 212.74C174.77 213.424 173.575 213.862 172.329 214.021C171.894 214.139 171.44 214.167 170.994 214.104C170.229 213.943 169.686 213.284 169.215 212.657C167.365 210.207 165.564 207.618 164.783 204.646C163.675 200.338 164.783 195.72 166.706 191.695C167.397 190.072 168.404 188.604 169.669 187.376C171.233 186.09 173.111 185.246 175.11 184.931C177.154 184.521 179.664 183.645 179.813 186.134C180.032 190.913 179.954 195.702 179.581 200.471Z" fill="#4CBDB1"/>
<path d="M210.234 96.2632C214.056 98.2424 218.3 100.759 219.098 104.99C219.591 107.573 218.643 110.218 218.799 112.846C218.937 115.158 219.907 117.392 219.785 119.698C219.655 120.788 219.47 121.871 219.231 122.942C218.904 124.987 219.098 127.072 219.015 129.14C218.832 133.797 217.275 138.277 216.522 142.873C215.988 146.155 215.864 149.49 216.15 152.803C216.333 154.943 216.704 157.072 216.704 159.223C216.704 160.772 216.577 162.318 216.322 163.846C215.58 168.647 214.084 173.301 211.89 177.635C209.225 182.885 209.602 189.66 209.885 195.542C210.008 196.353 209.905 197.182 209.585 197.938C208.887 199.207 207.148 199.39 205.707 199.268C200.366 198.78 195.412 196.269 191.857 192.249C191.339 191.744 190.987 191.092 190.849 190.381C190.727 189.194 191.68 188.219 192.367 187.237C194.705 183.911 194.112 179.403 194.389 175.317C194.591 172.345 195.302 169.429 196.489 166.696C197.176 165.116 198.034 163.558 198.19 161.839C198.334 160.237 197.846 158.652 197.364 157.121L195.702 151.843C193.126 143.644 190.533 135.394 186.633 127.737C184.074 129.403 182.243 131.979 181.509 134.945C180.057 140.167 182.123 146 180.146 151.023C179.818 151.719 179.546 152.44 179.331 153.18C179.215 153.817 179.17 154.467 179.198 155.114C179.25 160.519 179.579 165.916 180.184 171.287C180.214 172.1 180.443 172.894 180.849 173.599C181.176 174.07 181.653 174.419 182.002 174.868C182.971 176.127 182.788 177.89 182.556 179.459L181.448 186.877C181.428 187.253 181.303 187.616 181.087 187.925C180.826 188.178 180.5 188.354 180.146 188.435C176.625 189.529 172.914 189.869 169.254 189.433C168.174 189.305 167.193 188.579 166.29 187.969C166.196 186.86 167.575 186.123 167.625 185.02C167.572 184.366 167.268 183.758 166.778 183.323C164.717 180.995 162.257 178.522 162.279 175.412C162.279 174.597 162.473 173.782 162.445 172.967C162.373 170.876 160.933 169.086 160.429 167.073C159.808 164.584 160.634 162 160.949 159.456C161.382 156.029 160.872 152.559 160.395 149.138L158.539 136.586C158.324 134.638 157.938 132.712 157.387 130.831C156.688 128.979 155.869 127.175 154.933 125.431C153.16 121.827 151.703 118.079 150.252 114.343C149.79 113.327 149.5 112.243 149.393 111.133C149.31 109.231 150.29 107.435 151.509 105.971C153.792 103.251 156.908 101.361 160.373 100.593C160.952 100.431 161.561 100.407 162.152 100.521C162.648 100.686 163.114 100.931 163.531 101.247C167.814 104.051 172.687 105.823 177.768 106.426C182.85 107.029 188.002 106.447 192.821 104.724C193.375 105.145 194.4 104.962 195.037 104.663C196.816 103.848 198.267 102.489 199.829 101.336C202.738 99.1295 206.66 97.0338 210.234 96.2632Z" fill="#4CBDB1"/>
<path d="M95.4051 238.643C95.6993 239.492 96.142 240.282 96.7126 240.977C98.7181 243.594 101.516 245.684 102.807 248.739C103.078 249.393 103.278 250.08 103.527 250.746C104.285 252.754 105.521 254.546 107.128 255.968C108.353 256.986 109.685 257.869 111.1 258.602C113.549 259.938 116.197 261.146 118.978 261.074C119.537 261.062 120.094 260.996 120.64 260.875C121.506 260.695 122.34 260.389 123.116 259.966C124.906 258.979 126.44 257.049 126.086 255.037C126.014 254.653 125.893 254.28 125.726 253.928C125.432 253.367 125.093 252.831 124.712 252.326C123.776 251.028 122.812 249.698 121.443 248.866C119.903 247.924 117.964 247.691 116.579 246.527C116.033 246.032 115.561 245.46 115.178 244.83C113.922 242.899 112.987 240.778 112.408 238.548C111.986 236.885 111.704 235.061 110.491 233.841C109.277 232.622 107.61 232.345 105.992 232.067C105.445 231.955 104.888 231.901 104.33 231.907C103.538 231.934 102.718 232.162 101.976 231.79C101.233 231.419 100.984 230.892 100.086 230.964C99.3721 231.06 98.6987 231.354 98.1419 231.812C96.0367 233.37 94.6406 236.142 95.4051 238.643Z" fill="#4CBDB1"/>
<path d="M115.089 241.165C115.449 243.045 116.003 245.046 117.454 246.272C118.38 247.07 119.67 247.569 120.13 248.694C120.59 249.82 119.997 251.234 119.233 252.265C118.257 253.569 117.047 254.68 115.665 255.541C114.491 256.268 113.089 256.822 111.743 256.5C110.635 256.24 109.759 255.442 108.934 254.671C107.039 252.913 105.1 251.089 104.036 248.733C102.928 246.249 102.873 243.372 101.665 240.927C100.962 239.502 99.8759 238.255 99.4493 236.724C99.2581 236.171 99.2581 235.57 99.4493 235.017C99.6559 234.621 99.9684 234.291 100.352 234.063C100.736 233.834 101.175 233.718 101.621 233.725C102.513 233.755 103.393 233.943 104.219 234.279C106.72 235.172 109.281 235.889 111.881 236.425C112.917 236.619 113.543 236.614 114.097 237.617C114.609 238.741 114.944 239.938 115.089 241.165Z" fill="#4CBDB1"/>
<path d="M121.515 257.055C121.105 257.684 120.814 258.383 120.657 259.117C120.526 259.688 120.505 260.279 120.596 260.858C121.461 260.679 122.296 260.372 123.072 259.949C124.862 258.962 126.396 257.033 126.042 255.02C125.97 254.637 125.849 254.264 125.681 253.911C125.417 253.852 125.142 253.863 124.883 253.944C124.624 254.025 124.392 254.172 124.208 254.371C123.176 255.12 122.268 256.026 121.515 257.055Z" fill="#4CBDB1"/>
<path d="M101.66 214.93C101.419 215.449 101.347 216.031 101.455 216.594C101.71 217.702 102.845 218.34 103.87 218.845L113.615 223.612C114.291 223.925 114.95 224.275 115.587 224.66C117.249 225.68 118.557 227.122 119.975 228.441C121.393 229.761 122.972 230.997 124.85 231.463C126.725 231.874 128.685 231.617 130.39 230.737C131.31 230.278 132.163 229.698 132.928 229.012C133.59 228.431 134.201 227.795 134.756 227.111C135.232 226.607 135.574 225.991 135.748 225.32C135.931 224.305 135.426 223.308 134.839 222.47C134.501 221.988 134.131 221.528 133.731 221.095C130.036 217.009 123.981 214.892 118.773 214.06C116.701 213.727 114.734 212.951 112.74 212.319C110.745 211.687 108.635 211.21 106.563 211.504C104.491 211.798 102.452 212.99 101.66 214.93Z" fill="#4CBDB1"/>
<path opacity="0.1" d="M101.66 214.93C101.419 215.449 101.347 216.031 101.455 216.594C101.71 217.702 102.845 218.34 103.87 218.845L113.615 223.612C114.291 223.925 114.95 224.275 115.587 224.66C117.249 225.68 118.557 227.122 119.975 228.441C121.393 229.761 122.972 230.997 124.85 231.463C126.725 231.874 128.685 231.617 130.39 230.737C131.31 230.278 132.163 229.698 132.928 229.012C133.59 228.431 134.201 227.795 134.756 227.111C135.232 226.607 135.574 225.991 135.748 225.32C135.931 224.305 135.426 223.308 134.839 222.47C134.501 221.988 134.131 221.528 133.731 221.095C130.036 217.009 123.981 214.892 118.773 214.06C116.701 213.727 114.734 212.951 112.74 212.319C110.745 211.687 108.635 211.21 106.563 211.504C104.491 211.798 102.452 212.99 101.66 214.93Z" fill="#4CBDB1"/>
<path d="M126.047 217.974C126.796 218.816 127.413 219.768 127.875 220.796C128.291 221.47 128.44 222.275 128.291 223.052C128.073 223.576 127.724 224.034 127.277 224.383L126.307 225.281C126.015 225.586 125.674 225.841 125.299 226.035C124.769 226.234 124.203 226.319 123.637 226.285C122.335 226.285 120.934 226.285 119.876 225.503C118.43 224.461 118.169 222.304 118.828 220.646C119.488 218.989 120.867 217.736 122.258 216.616C123.388 215.701 125.255 217.137 126.047 217.974Z" fill="#4CBDB1"/>
<path d="M131.964 223.707C131.785 224.627 131.871 225.579 132.213 226.451C132.457 227.283 132.695 228.114 132.933 228.963C132.933 228.963 132.933 228.963 132.933 228.996C133.595 228.415 134.207 227.779 134.762 227.094C135.238 226.591 135.579 225.975 135.753 225.304C135.936 224.289 135.432 223.291 134.845 222.454C134.507 221.971 134.136 221.512 133.737 221.079C133.476 221.417 133.249 221.75 133.061 221.966C132.576 222.462 132.202 223.055 131.964 223.707Z" fill="#4CBDB1"/>
<path d="M106.507 182.386C105.361 187.21 105.848 192.255 106.458 197.178C106.923 200.926 107.444 204.807 106.336 208.416C105.926 209.763 105.277 211.133 105.527 212.524C105.998 215.147 109.156 216.156 111.77 216.649C112.525 216.841 113.309 216.888 114.081 216.788C114.855 216.577 115.574 216.198 116.186 215.679C119.903 212.975 122.726 209.219 124.291 204.895C125.283 202.001 125.598 198.924 125.903 195.881C126.413 190.758 126.928 185.574 126.18 180.485C125.958 178.988 125.626 177.507 125.488 175.999C125.313 173.376 125.458 170.742 125.92 168.154C126.874 161.744 128.318 155.416 130.241 149.227C124.965 149.928 119.603 148.958 114.906 146.454C115.815 146.942 114.773 154.721 114.662 155.813C114.326 159.069 113.739 162.294 112.906 165.46C111.36 171.375 107.909 176.509 106.507 182.386Z" fill="#4CBDB1"/>
<path opacity="0.1" d="M106.507 182.386C105.361 187.21 105.848 192.255 106.458 197.178C106.923 200.926 107.444 204.807 106.336 208.416C105.926 209.763 105.277 211.133 105.527 212.524C105.998 215.147 109.156 216.156 111.77 216.649C112.525 216.841 113.309 216.888 114.081 216.788C114.855 216.577 115.574 216.198 116.186 215.679C119.903 212.975 122.726 209.219 124.291 204.895C125.283 202.001 125.598 198.924 125.903 195.881C126.413 190.758 126.928 185.574 126.18 180.485C125.958 178.988 125.626 177.507 125.488 175.999C125.313 173.376 125.458 170.742 125.92 168.154C126.874 161.744 128.318 155.416 130.241 149.227C124.965 149.928 119.603 148.958 114.906 146.454C115.815 146.942 114.773 154.721 114.662 155.813C114.326 159.069 113.739 162.294 112.906 165.46C111.36 171.375 107.909 176.509 106.507 182.386Z" fill="#4CBDB1"/>
<path d="M135.271 154.122C137.487 160.548 137 167.567 136.041 174.297C135.083 181.028 133.67 187.758 134.086 194.539C134.246 197.2 134.679 199.933 133.903 202.478C133.472 203.72 132.901 204.908 132.202 206.021L114.524 236.614C114.073 237.408 113.432 238.077 112.658 238.561C111.884 239.045 111.002 239.328 110.092 239.386C108.203 239.519 106.347 238.898 104.585 238.205C103.414 237.817 102.327 237.213 101.377 236.425C100.907 236.033 100.538 235.533 100.303 234.967C100.067 234.401 99.9722 233.787 100.026 233.176C100.818 227.865 102.009 222.426 102.89 217.098C103.489 213.483 104.795 210.022 106.735 206.914C108.103 204.696 109.787 202.706 110.967 200.399C114.358 193.791 113.183 185.729 110.568 178.777C107.953 171.825 104.059 165.371 101.981 158.264C101.365 156.286 101.013 154.235 100.934 152.165C100.908 150.027 101.304 147.905 102.099 145.921C102.894 143.936 104.072 142.128 105.566 140.6C106.002 140.106 106.551 139.725 107.167 139.491C107.886 139.324 108.636 139.337 109.349 139.53C119.194 141.443 132.019 144.63 135.271 154.122Z" fill="#4CBDB1"/>
<path d="M294.176 58.1914C294.498 60.6198 293.622 63.0758 292.376 65.1771C287.661 73.0498 276.792 76.5315 268.387 72.8668C264.925 71.3533 261.994 68.8584 259.125 66.3968C258.161 65.5652 257.158 64.6947 256.67 63.5194C255.812 61.4403 256.848 58.9621 258.537 57.4762C260.227 55.9904 262.415 55.2586 264.593 54.5988C271.778 52.359 292.464 45.2957 294.176 58.1914Z" fill="#4CBDB1"/>
<path d="M289.971 50.4851C296.514 55.7521 306.038 60.7696 313.45 64.6727C315.971 66.0033 318.769 67.5002 319.677 70.2168C320.165 71.6694 320.004 73.2495 319.843 74.7796C319.533 77.7236 319.212 80.7119 318.076 83.4452C316.741 86.6441 314.381 89.2832 312.486 92.1883C309.162 97.2778 307.212 103.277 303.107 107.773C305.877 116.982 308.907 126.18 309.893 135.738C309.948 136.001 309.919 136.274 309.81 136.519C309.697 136.681 309.549 136.815 309.378 136.913L302.486 141.437C301.735 141.876 301.063 142.438 300.498 143.1C299.279 144.686 299.439 146.915 298.686 148.761C298.273 149.662 297.682 150.47 296.949 151.137C296.216 151.804 295.356 152.316 294.42 152.642C292.537 153.291 290.531 153.504 288.553 153.263C286.036 153.104 283.612 152.25 281.551 150.796C279.794 149.465 278.542 147.597 277.335 145.756C276.44 144.501 275.696 143.144 275.119 141.714C274.382 139.674 274.337 137.451 274.365 135.277C274.383 131.142 274.778 127.017 275.545 122.953C275.867 121.339 276.265 119.748 276.52 118.124C277.03 114.853 276.93 111.515 277.307 108.228C277.822 104.53 278.646 100.882 279.772 97.3222C280.388 95.1175 280.869 92.8772 281.213 90.6138C281.861 86.6331 283.152 82.791 284.443 78.971L286.659 72.4234C287.129 71.0096 287.606 69.6014 288.165 68.2209C289.207 65.6429 290.548 63.1314 290.902 60.3815C291.296 57.3821 288.06 53.8227 289.152 51.0063C289.24 50.6958 289.722 50.2856 289.971 50.4851Z" fill="#4CBDB1"/>
<path d="M317.904 68.6699C319.439 69.3629 320.287 71.0151 320.835 72.6118C322.071 76.2103 322.369 80.0652 321.699 83.811C321.483 84.7527 321.335 85.7088 321.256 86.6718C321.268 87.7881 321.377 88.9012 321.583 89.9983C322.137 94.2396 321.583 98.5474 321.766 102.827C321.954 107.64 323.001 112.724 320.985 117.098C319.644 120.003 317.107 122.166 314.603 124.128C305.28 131.399 294.993 137.34 284.038 141.781C285.927 139.508 285.961 136.087 284.703 133.409C283.445 130.731 281.107 128.719 278.609 127.155C281.789 126.448 284.869 125.347 287.778 123.879C293.584 120.929 298.559 116.61 303.473 112.336C304.197 111.814 304.762 111.1 305.101 110.273C305.6 108.61 304.226 107.03 303.273 105.572C300.387 101.137 301.057 95.3429 302.265 90.209C303.611 84.5817 305.589 78.9765 309.195 74.4525C311.445 71.625 314.381 69.4516 317.904 68.6699Z" fill="#4CBDB1"/>
<path d="M283.551 141.919C283.053 142.732 282.406 143.443 281.645 144.015C279.983 145.124 277.7 144.703 275.845 143.915C274.12 143.183 272.528 142.17 271.135 140.916C270.537 140.279 269.829 139.753 269.047 139.363C267.595 138.809 265.568 139.225 264.753 137.889C264.659 137.748 264.612 137.581 264.62 137.412C264.67 136.93 265.302 136.797 265.789 136.769C268.051 136.619 270.246 135.941 272.199 134.79C271.575 134.338 271.042 133.774 270.626 133.126C270.453 132.9 270.36 132.624 270.36 132.339C270.428 132.03 270.597 131.753 270.842 131.552C272.623 129.87 274.863 128.757 277.279 128.354C279.694 127.951 282.174 128.277 284.404 129.29C284.839 129.466 285.221 129.753 285.512 130.121C285.717 130.461 285.854 130.838 285.916 131.23C286.276 132.783 287.578 135.111 287.107 136.68C286.587 138.482 284.62 140.395 283.551 141.919Z" fill="#4CBDB1"/>
<path d="M245.773 134.928C252.665 126.961 255.745 116.477 258.604 106.337L260.648 99.1296L265.579 81.7708C266.304 79.2094 267.03 76.648 267.512 74.0367C268.338 69.5293 268.415 64.9221 268.365 60.3426C268.295 58.4442 267.861 56.5771 267.086 54.8428C266.604 53.6453 266.371 52.3701 265.978 51.1338C265.477 49.4101 264.729 47.7685 263.756 46.2605C263.485 45.8121 263.147 45.4082 262.753 45.0629C262.072 44.5993 261.299 44.2856 260.487 44.1426C258.726 43.6185 256.901 43.3405 255.064 43.3165C253.224 43.3831 251.33 44.0206 250.144 45.4178C249.241 46.4878 248.826 47.8738 248.111 49.0769C247.778 49.5695 247.477 50.0824 247.208 50.6126C246.903 51.4182 246.735 52.2688 246.709 53.1297C246.421 56.6225 246.176 60.119 245.973 63.6192C245.878 65.2104 245.795 66.8127 245.856 68.4094C245.906 69.6513 246.039 70.8876 246.172 72.124L247.485 84.2324C247.79 87.0766 247.574 89.7378 247.828 92.5875C248.449 99.4678 246.97 106.348 245.452 113.101C244.726 116.311 243.978 119.565 242.427 122.47C241.059 125.043 239.009 127.654 239.552 130.521C239.74 131.519 240.244 132.45 240.322 133.459C240.284 134.084 240.345 134.711 240.505 135.316C240.731 135.728 241.082 136.057 241.507 136.257C241.932 136.456 242.409 136.515 242.87 136.425C243.967 136.232 244.98 135.71 245.773 134.928Z" fill="#4CBDB1"/>
<path d="M246.615 103.044C246.826 104.635 246.665 106.248 246.742 107.85C246.916 109.914 247.287 111.956 247.85 113.949C248.404 116.167 249.114 118.65 251.069 119.881C251.56 120.136 252.029 120.431 252.471 120.763C252.689 120.935 252.849 121.169 252.93 121.435C253.011 121.7 253.01 121.984 252.925 122.249L251.402 121.994C251.575 122.126 251.718 122.293 251.821 122.485C251.925 122.676 251.987 122.887 252.004 123.104C252.021 123.321 251.991 123.539 251.918 123.744C251.844 123.949 251.729 124.137 251.578 124.294C251.427 124.451 251.245 124.574 251.043 124.656C250.842 124.738 250.625 124.776 250.408 124.768C250.19 124.76 249.977 124.707 249.782 124.611C249.586 124.515 249.413 124.379 249.274 124.211C249.332 124.711 249.285 125.217 249.136 125.697C249.059 125.933 248.911 126.139 248.713 126.288C248.515 126.436 248.275 126.521 248.028 126.529C247.741 126.484 247.469 126.37 247.236 126.196L243.258 123.729C242.066 123.087 241.075 122.127 240.394 120.957L238.654 118.334C238.271 117.829 237.966 117.268 237.751 116.671C237.103 114.454 238.914 111.992 237.973 109.902C237.69 109.387 237.358 108.9 236.981 108.449C234.97 105.677 235.097 101.907 235.319 98.4697C235.391 97.311 235.601 95.936 236.649 95.4315C237.48 95.0268 238.477 95.3872 239.247 95.8917C240.017 96.3962 240.698 97.0615 241.574 97.3609C242.128 97.5494 242.737 97.5716 243.291 97.7712C244.067 98.0428 244.787 99.1018 245.308 99.7282C246.044 100.69 246.497 101.838 246.615 103.044Z" fill="#4CBDB1"/>
<path d="M198.068 53.2184C197.597 54.2993 196.937 55.287 196.118 56.1346C195.706 56.5581 195.201 56.879 194.643 57.0716C194.085 57.2642 193.489 57.323 192.904 57.2434C191.675 56.9995 190.771 55.9849 189.957 55.0257C187.83 52.5253 185.675 49.9917 184.245 47.0311C182.063 42.5237 181.714 37.3787 181.398 32.3834C181.32 31.0972 181.254 29.7333 181.869 28.6078C182.65 27.1719 184.306 26.4955 185.835 25.9245L194.284 22.7643C194.802 22.5189 195.375 22.4137 195.946 22.4594C197.27 22.6811 197.757 24.2779 198.118 25.5696C198.762 27.891 199.833 30.0719 201.275 32.0009C203.17 34.529 207.419 37.9331 204.993 41.0877C202.062 44.8689 200.201 48.9494 198.068 53.2184Z" fill="#4CBDB1"/>
<path d="M208.876 38.7924C212.577 42.2742 213.829 47.6964 213.652 52.7693C213.475 57.8422 212.067 62.7876 211.264 67.7995C210.461 72.8114 210.3 78.1615 212.477 82.7687C213.225 84.3488 214.245 85.8124 214.765 87.4812C215.202 89.1306 215.35 90.8431 215.203 92.543C215.194 94.3351 214.852 96.1098 214.195 97.7767C213.015 100.394 210.588 102.212 208.267 103.875C203.53 107.302 198.699 110.783 193.137 112.574C189.37 113.788 185.381 114.187 181.436 114.404C178.766 114.617 176.08 114.54 173.426 114.176C168.782 113.402 164.515 111.141 161.265 107.734C160.699 107.185 160.232 106.541 159.886 105.832C159.547 104.91 159.384 103.932 159.404 102.949C159.271 99.3088 159.293 95.6681 159.47 92.0274C159.572 88.5579 160.049 85.1096 160.894 81.743C161.952 77.8621 163.786 74.2251 165.176 70.444C170.018 57.2988 169.531 42.3407 176.257 30.0659C177.708 27.4158 180.135 24.6271 183.126 25.0485C183.702 25.0831 184.243 25.3324 184.644 25.747C184.988 26.2516 185.18 26.8442 185.198 27.4546C185.913 33.4201 186.927 39.5409 189.735 44.9243C190.843 47.0366 192.505 50.2522 195.059 50.8177C197.613 51.3832 199.12 48.9438 200.489 47.214C202.893 44.042 205.715 41.2092 208.876 38.7924Z" fill="#4CBDB1"/>
<path d="M226.588 29.8165C227.343 30.2248 228.047 30.7197 228.688 31.2912C230.35 32.8658 230.959 35.2775 230.948 37.5617C230.937 39.8459 230.394 42.0968 230.062 44.3588C229.17 50.4574 229.929 56.7001 230.283 62.8763C230.391 63.8735 230.331 64.8817 230.106 65.8591C229.834 66.7905 229.275 67.611 228.915 68.5147C227.857 71.187 228.654 74.2363 228.034 77.0416C227.369 80.0299 225.092 82.7466 225.519 85.7792C225.69 86.9657 226.261 88.0579 226.505 89.2332C226.749 90.4086 226.538 91.8279 225.524 92.4599C224.51 93.0919 223.037 92.6318 221.829 92.9811C221.338 93.1623 220.861 93.3772 220.4 93.6242C218.533 94.4669 216.306 94.1786 214.466 93.2583C212.664 92.2737 211.043 90.9873 209.674 89.455C207.563 87.2928 205.519 84.9254 204.594 82.048C203.242 77.8788 204.444 73.3381 205.912 69.2022C207.381 65.0662 209.131 60.8859 208.871 56.4894C208.727 54.0278 207.951 51.6605 207.486 49.2432C206.91 45.8941 206.704 42.4917 206.871 39.0974C206.943 36.6136 207.109 34.0522 208.178 31.8068C208.941 30.309 210.066 29.0267 211.452 28.0774C212.839 27.1281 214.441 26.5423 216.112 26.3736C219.99 25.9522 223.314 27.9315 226.588 29.8165Z" fill="#4CBDB1"/>
<path opacity="0.1" d="M216.112 83.4063C216.151 85.1804 216.468 86.9372 217.053 88.6123C218.045 86.3503 218.161 83.8111 218.294 81.3495C218.848 72.8724 220.726 64.8778 222.726 56.6669C221.269 57.7757 220.449 60.5478 219.751 62.211C216.981 68.9182 215.738 76.1584 216.112 83.4063Z" fill="#4CBDB1"/>
<path d="M178.766 24.3389C176.096 25.043 173.78 26.6286 171.193 27.6654C168.506 28.7742 165.614 29.2454 162.794 29.9274C156.268 31.513 149.714 34.4569 145.775 39.9069C142.872 43.9153 141.67 48.8662 139.681 53.4069C138.019 57.2157 135.803 60.7862 134.579 64.7502C132.978 69.9229 133.161 75.4671 133.554 80.8671C133.875 85.3024 134.363 89.7877 136.374 93.7185C137.426 95.7809 138.878 97.6271 139.93 99.6895C141.194 102.168 141.858 104.901 142.911 107.451C143.964 110.002 145.509 112.552 147.952 113.883L151.997 111.515C158.03 107.984 164.063 104.446 169.908 100.61C175.004 97.2833 180.146 93.4634 182.86 87.9969C185.265 83.1679 185.503 77.524 184.882 72.1628C184.262 66.8016 182.844 61.5568 182.112 56.2122C181.181 49.4854 181.321 42.6533 182.528 35.9705C183.082 32.9545 184.556 29.8387 184.86 26.8337C185.198 23.6237 181.076 23.729 178.766 24.3389Z" fill="#4CBDB1"/>
<path d="M153.764 112.474C156.861 115.407 161.315 116.261 165.187 118.018C168.065 119.355 170.655 121.238 172.816 123.563C174.007 124.871 175.16 126.651 174.561 128.314C174.057 129.744 172.511 130.476 171.093 131.008C169.331 131.674 167.365 132.261 165.609 131.591C164.578 131.197 163.747 130.41 162.8 129.85C160.478 128.469 157.553 128.464 155.171 127.189C151.814 125.392 150.141 121.439 146.983 119.305C145.254 118.14 142.867 117.187 142.689 115.108C142.681 114.356 142.84 113.612 143.155 112.929C143.792 111.232 144.878 105.406 147.304 105.561C149.947 105.733 151.797 111.072 153.764 112.474Z" fill="#4CBDB1"/>
<path d="M137.537 86.4888C138.551 90.1369 140.906 93.2471 143.349 96.1412C145.105 98.2203 147.033 100.482 147.094 103.204C147.149 105.777 145.432 108.144 143.216 109.458C141 110.772 138.39 111.194 135.825 111.36C133.773 111.558 131.703 111.413 129.698 110.933C124.634 109.558 121.122 105.139 117.139 101.724C114.773 99.7005 112.114 97.9375 110.302 95.4038C108.491 92.8701 107.726 89.2332 109.51 86.6773C110.154 85.8488 110.898 85.1039 111.726 84.4597C114.752 81.8345 117.332 78.7358 119.366 75.2841C120.186 73.8925 120.972 72.3845 122.352 71.5473C124.33 70.3442 126.867 70.8931 129.105 71.4808C131.537 72.1184 138.39 73.3658 138.867 76.4705C139.061 77.7457 137.482 79.7305 137.244 81.0999C136.94 82.8957 137.041 84.7366 137.537 86.4888Z" fill="#4CBDB1"/>
<path d="M150.063 93.4413C150.789 94.7576 151.386 96.1407 151.847 97.5717C153.537 103.448 150.518 109.503 149.077 115.446C147.238 123.058 148.019 131.02 147.93 138.853C147.892 142.435 147.509 146.377 144.933 148.861C144.268 149.493 143.471 150.025 143.022 150.823C142.745 151.408 142.538 152.024 142.407 152.658C142.014 154.028 141.316 155.291 140.366 156.354C139.416 157.416 138.239 158.249 136.922 158.792C135.605 159.335 134.183 159.573 132.761 159.488C131.339 159.403 129.955 158.998 128.712 158.302C126.612 157.133 124.79 155.103 122.385 155.042C121.629 155.079 120.876 155.162 120.13 155.292C117.737 155.53 115.394 154.643 113.15 153.773C112.614 153.604 112.115 153.337 111.676 152.986C111.272 152.614 111.011 152.115 110.64 151.716C109.272 150.241 106.934 150.496 104.962 150.086C103.49 149.756 102.143 149.015 101.076 147.948C100.01 146.881 99.269 145.532 98.9397 144.059C98.5408 142.152 98.8788 140.179 99.2112 138.255L100.696 129.683C101.319 126.539 101.75 123.36 101.987 120.164C102.169 116.552 101.859 112.932 101.067 109.403C100.413 106.52 99.4383 103.698 99.0838 100.76C98.4659 95.4934 99.8503 90.1874 102.962 85.8957C103.732 84.8367 104.74 83.7778 106.048 83.678C107.106 83.5838 108.097 84.1493 109.017 84.6926C117.006 89.4236 125.05 94.0567 133.149 98.5918C135.366 99.8392 137.631 101.092 140.102 101.708C140.845 101.896 141.908 101.818 142.014 101.064C142.027 100.777 141.951 100.493 141.797 100.249C140.412 97.5828 138.407 95.293 136.811 92.7538C135.216 90.2146 133.986 87.2096 134.457 84.2601C135.1 80.1796 138.889 77.4796 141.986 80.6786C145.459 84.31 147.786 88.9782 150.063 93.4413Z" fill="#4CBDB1"/>
<path d="M125.255 145.185C131.753 145.601 138.396 146.044 144.412 148.539C146.346 149.337 148.396 150.369 150.429 149.875C151.441 149.567 152.382 149.062 153.199 148.389C155.704 146.551 158.07 144.532 160.279 142.346C160.058 141.132 158.412 140.966 157.182 140.977C154.183 140.995 151.225 140.283 148.562 138.903C147.687 138.376 146.758 137.943 145.792 137.612C143.16 136.885 140.479 138.271 137.836 138.948C133.925 139.946 129.803 139.363 125.809 138.776L115.028 137.185C114.025 137.04 112.895 136.924 112.097 137.545C111.564 138.049 111.199 138.705 111.05 139.424C109.732 143.86 110.363 144.231 114.751 144.508L125.255 145.185Z" fill="#4CBDB1"/>
<path opacity="0.1" d="M272.465 68.2098C282.256 68.2098 290.193 60.2667 290.193 50.4685C290.193 40.6702 282.256 32.7272 272.465 32.7272C262.674 32.7272 254.737 40.6702 254.737 50.4685C254.737 60.2667 262.674 68.2098 272.465 68.2098Z" fill="#4CBDB1"/>
<path d="M272.338 67.4391C282.129 67.4391 290.066 59.4961 290.066 49.6978C290.066 39.8996 282.129 31.9565 272.338 31.9565C262.547 31.9565 254.609 39.8996 254.609 49.6978C254.609 59.4961 262.547 67.4391 272.338 67.4391Z" fill="#4CBDB1"/>
<path d="M287.301 27.1719C288.719 28.0479 290.204 28.9904 290.98 30.4652C291.397 31.4664 291.714 32.5063 291.927 33.5699C292.897 36.8964 295.478 39.7849 295.633 43.25C295.805 47.0477 292.958 50.3465 289.733 52.3369C288.997 52.8797 288.11 53.1782 287.196 53.1907C286.26 53.1297 285.451 52.542 284.592 52.165C280.952 50.5461 276.88 52.5974 273.025 53.5399C269.018 54.5083 264.813 54.2613 260.947 52.8303C258.87 52.0541 256.853 50.8898 255.551 49.088C254.249 47.2861 253.784 44.7635 254.892 42.8286C255.446 41.8418 256.366 40.9492 256.305 39.8237C256.271 39.1473 255.873 38.5375 255.751 37.8722C255.573 36.8132 256.127 35.782 256.692 34.8783C259.256 30.7493 262.496 27.0814 266.277 24.0284C267.385 23.1192 268.664 22.2321 270.116 22.1656C273.03 22.038 275.534 24.2113 278.531 24.2224C281.933 24.2335 284.376 25.3645 287.301 27.1719Z" fill="#4CBDB1"/>
<path opacity="0.1" d="M207.076 45.95C217.173 45.95 225.358 37.7587 225.358 27.6542C225.358 17.5498 217.173 9.35852 207.076 9.35852C196.979 9.35852 188.794 17.5498 188.794 27.6542C188.794 37.7587 196.979 45.95 207.076 45.95Z" fill="#4CBDB1"/>
<path d="M207.397 45.5009C217.494 45.5009 225.679 37.3096 225.679 27.2051C225.679 17.1007 217.494 8.90942 207.397 8.90942C197.3 8.90942 189.115 17.1007 189.115 27.2051C189.115 37.3096 197.3 45.5009 207.397 45.5009Z" fill="#4CBDB1"/>
<path d="M217.164 37.5395C219.746 38.9865 222.932 38.8369 225.812 38.1771C227.446 37.8698 228.995 37.2157 230.355 36.2588C231.031 35.7758 231.588 35.1456 231.984 34.4156C232.38 33.6857 232.606 32.8752 232.643 32.0453C232.643 30.188 231.424 28.5136 231.275 26.6563C231.092 24.3167 232.616 22.1545 232.776 19.8038C232.937 17.453 231.779 15.3352 230.649 13.3171C228.704 9.852 226.682 6.34255 223.724 3.69244C220.765 1.04233 216.666 -0.648635 212.788 0.243974C210.882 0.681963 209.115 1.70763 207.17 1.90722C205.442 2.068 203.735 1.54685 202.012 1.32509C200.289 1.10332 198.356 1.24192 197.12 2.43392C196.445 3.09922 196.012 4.03618 195.22 4.52406C194.683 4.77204 194.127 4.9778 193.558 5.13947C191.558 5.94337 190.644 8.19984 189.935 10.229L185.182 23.8621C186.772 24.9709 188.688 25.4754 190.428 26.3292C192.168 27.183 193.857 28.5469 194.212 30.4541C194.483 31.9011 193.968 33.5644 194.81 34.773C195.58 35.8818 197.148 36.0703 198.478 35.8818C199.807 35.6933 201.143 35.2332 202.472 35.4383C205.796 35.9428 207.032 37.9831 210.106 35.4383C213.181 32.8935 214.306 35.9317 217.164 37.5395Z" fill="#4CBDB1"/>
<path opacity="0.1" d="M129.704 85.0972C138.883 85.0972 146.324 77.6506 146.324 68.4648C146.324 59.2789 138.883 51.8323 129.704 51.8323C120.524 51.8323 113.083 59.2789 113.083 68.4648C113.083 77.6506 120.524 85.0972 129.704 85.0972Z" fill="#4CBDB1"/>
<path d="M130.346 84.1935C139.525 84.1935 146.966 76.7469 146.966 67.5611C146.966 58.3752 139.525 50.9286 130.346 50.9286C121.167 50.9286 113.726 58.3752 113.726 67.5611C113.726 76.7469 121.167 84.1935 130.346 84.1935Z" fill="#4CBDB1"/>
<path d="M143.072 51.3C139.115 48.262 134.669 45.922 129.925 44.3809C126.889 43.3941 123.587 42.7177 120.507 43.6269C116.33 44.8189 110.74 46.5986 108.153 50.097C106.879 51.8156 105.588 53.5842 104.973 55.6411C103.743 59.7771 105.494 64.1847 105.377 68.498C105.239 73.5266 102.574 78.1171 99.6655 82.2198C96.757 86.3225 96.1697 92.1993 94.4523 96.934C93.8651 98.5584 93.6767 100.815 95.1891 101.63C96.5188 102.367 98.1254 101.447 99.3553 100.56L106.751 95.2098C107.326 94.7369 107.989 94.3826 108.701 94.1675C110.225 93.8126 111.715 94.7662 112.989 95.6699L128.501 106.647C128.808 106.021 128.973 105.335 128.986 104.637C128.998 103.94 128.858 103.248 128.573 102.611C130.03 103.06 131.089 104.274 132.368 105.139C133.648 106.004 135.593 106.287 136.523 105.078C137.454 103.87 136.751 102.245 135.715 101.27C134.679 100.294 133.316 99.7116 132.302 98.7081C130.291 96.7067 130.086 93.5465 128.817 91.0184C127.909 89.2443 126.441 87.7584 125.798 85.8679C124.751 82.7798 126.119 79.4533 127.46 76.4816C129.061 72.9555 130.873 69.191 134.28 67.3504C135.426 66.7294 136.695 66.3635 137.87 65.798C140.795 64.3953 144.446 61.0855 145.875 58.1194C147.127 55.4859 145.199 52.9411 143.072 51.3Z" fill="#4CBDB1"/>
<path opacity="0.1" d="M117.914 106.265C119.504 107.279 121.299 107.928 122.862 108.987C124.424 110.046 125.792 111.654 125.837 113.539C125.881 115.341 124.729 116.921 123.621 118.351L110.125 136.076L117.006 137.9C115.898 139.43 115.615 141.382 115.039 143.178C114.463 144.974 113.377 146.843 111.538 147.314C109.876 147.741 108.136 146.865 106.419 146.965C105.15 147.042 103.953 147.641 102.685 147.691C101.05 147.752 99.5325 146.892 98.1696 145.983C95.1337 143.949 92.1199 141.032 92.1421 137.373C92.214 136.136 92.4621 134.915 92.8789 133.747C94.8678 127.255 96.9287 120.608 101.05 115.208C103.266 112.325 105.976 109.891 108.685 107.474C109.301 106.853 110.026 106.351 110.823 105.993C112.596 105.328 114.529 106.148 116.363 106.681C118.197 107.213 120.507 107.291 121.565 105.722" fill="#4CBDB1"/>
<path d="M117.333 105.173C118.923 106.182 120.718 106.836 122.28 107.895C123.842 108.954 125.211 110.562 125.26 112.441C125.31 114.321 124.152 115.829 123.044 117.259L109.543 134.967L116.424 136.791C115.316 138.321 115.034 140.267 114.457 142.069C113.881 143.871 112.795 145.734 110.956 146.205C109.294 146.632 107.554 145.756 105.837 145.856C104.568 145.928 103.372 146.532 102.103 146.576C100.469 146.637 98.9507 145.778 97.5879 144.869C94.5519 142.84 91.5382 139.918 91.5659 136.264C91.6322 135.027 91.8786 133.805 92.2972 132.638C94.286 126.141 96.3469 119.493 100.469 114.099C102.685 111.21 105.399 108.776 108.103 106.337C108.722 105.72 109.446 105.219 110.241 104.857C112.014 104.191 113.948 105.012 115.781 105.55C117.615 106.087 119.925 106.16 120.984 104.591" fill="#4CBDB1"/>
<g opacity="0.1">
<path opacity="0.1" d="M256.127 45.4122C257.429 47.2141 259.451 48.3839 261.523 49.1546C265.388 50.5912 269.594 50.8383 273.601 49.8642C277.479 48.9217 281.529 46.8704 285.168 48.4893C286.027 48.8718 286.83 49.4539 287.767 49.5205C288.683 49.5039 289.571 49.2037 290.309 48.6611C292.553 47.2751 294.614 45.257 295.6 42.8786C295.6 43.0005 295.6 43.1225 295.633 43.25C295.805 47.0478 292.958 50.3465 289.733 52.3369C288.997 52.8797 288.11 53.1783 287.196 53.1907C286.26 53.1297 285.451 52.542 284.592 52.165C280.952 50.5461 276.88 52.5975 273.025 53.54C269.018 54.5084 264.813 54.2613 260.947 52.8303C258.87 52.0541 256.853 50.8899 255.551 49.088C254.249 47.2862 253.784 44.7636 254.892 42.8287L254.975 42.6901C255.154 43.6712 255.548 44.6007 256.127 45.4122Z" fill="#4CBDB1"/>
<path opacity="0.1" d="M256.864 36.1479C256.909 37.0017 256.393 37.7169 255.9 38.4432C255.832 38.2631 255.778 38.0777 255.74 37.8888C255.574 36.8964 256.05 35.9317 256.576 35.0613C256.727 35.4066 256.824 35.7731 256.864 36.1479Z" fill="#4CBDB1"/>
</g>
<path opacity="0.1" d="M191.231 8.42157L186.478 22.0491C188.068 23.1579 189.985 23.668 191.724 24.5163C193.464 25.3645 195.154 26.7339 195.508 28.6411C195.78 30.0881 195.264 31.7514 196.106 32.9655C196.877 34.0744 198.444 34.2573 199.774 34.0744C201.104 33.8914 202.439 33.4257 203.768 33.6308C207.092 34.1354 208.328 36.1756 211.403 33.6586C214.477 31.1415 215.591 34.1298 218.449 35.7376C221.031 37.1902 224.217 37.0405 227.097 36.3752C228.731 36.0696 230.28 35.4174 231.64 34.4625C231.834 34.3042 232.019 34.1358 232.194 33.958C231.77 34.8666 231.131 35.6582 230.333 36.2643C228.973 37.2212 227.424 37.8753 225.79 38.1826C222.909 38.8424 219.696 38.9921 217.142 37.545C214.283 35.9372 213.109 33.0044 210.095 35.466C207.081 37.9276 205.774 35.9428 202.461 35.466C201.131 35.2608 199.802 35.721 198.467 35.9095C197.131 36.098 195.569 35.9095 194.799 34.8007C193.957 33.592 194.472 31.9288 194.201 30.4818C193.846 28.5746 192.156 27.2052 190.417 26.3569C188.677 25.5087 186.76 24.9931 185.17 23.8898L189.946 10.2234C190.5 8.72095 191.109 7.09651 192.217 6.02649C191.833 6.80096 191.504 7.60126 191.231 8.42157Z" fill="#4CBDB1"/>
<g opacity="0.1">
<path opacity="0.1" d="M129.809 103.21C131.033 103.764 132.579 103.848 133.354 102.811C134.224 101.702 133.582 99.9834 132.546 99.002C131.51 98.0207 130.147 97.4441 129.133 96.4406C127.122 94.4447 126.917 91.2846 125.648 88.7564C124.74 86.9768 123.272 85.4909 122.629 83.6004C121.582 80.5178 122.95 77.1858 124.291 74.2197C125.892 70.6936 127.704 66.9291 131.111 65.0884C132.257 64.4675 133.526 64.1016 134.701 63.5361C137.626 62.1334 141.277 58.818 142.706 55.8519C143.908 53.3514 142.213 50.9231 140.196 49.2765C141.177 49.9141 142.135 50.5849 143.066 51.3001C145.199 52.9634 147.121 55.4859 145.836 58.1083C144.407 61.0745 140.756 64.3843 137.831 65.787C136.656 66.3414 135.388 66.7184 134.241 67.3394C130.834 69.18 129.022 72.9445 127.421 76.4706C126.075 79.4423 124.706 82.7687 125.759 85.8568C126.402 87.7474 127.87 89.2332 128.778 91.0074C130.064 93.5355 130.252 96.6957 132.263 98.6971C133.277 99.7006 134.64 100.277 135.676 101.259C136.712 102.24 137.338 103.936 136.485 105.067C135.631 106.198 133.604 105.965 132.33 105.128C131.471 104.546 130.69 103.781 129.809 103.21Z" fill="#4CBDB1"/>
<path opacity="0.1" d="M96.2085 98.2923L103.604 92.9478C104.179 92.4733 104.842 92.1172 105.555 91.8999C107.078 91.5507 108.568 92.5042 109.843 93.4079L125.355 104.385C125.661 103.758 125.827 103.071 125.839 102.373C125.852 101.674 125.711 100.982 125.427 100.344C126.85 100.787 127.886 101.974 129.122 102.805C128.942 102.724 128.757 102.655 128.568 102.6C128.852 103.237 128.993 103.929 128.98 104.626C128.968 105.324 128.802 106.01 128.496 106.636L112.984 95.6589C111.71 94.7552 110.214 93.8016 108.696 94.1564C107.983 94.3715 107.32 94.7258 106.746 95.1987L99.3497 100.549C98.1198 101.436 96.5132 102.356 95.1836 101.619C94.8199 101.395 94.5214 101.08 94.3182 100.704C94.1149 100.328 94.014 99.9058 94.0257 99.4788C94.8104 99.199 95.5468 98.7988 96.2085 98.2923Z" fill="#4CBDB1"/>
</g>
<path d="M280.986 134.501C280.986 134.501 249.241 137.046 242.926 132.544L271.966 128.064L280.986 134.501Z" fill="#4CBDB1"/>
<path opacity="0.1" d="M280.986 134.501C280.986 134.501 249.241 137.046 242.926 132.544L271.966 128.064L280.986 134.501Z" fill="#4CBDB1"/>
<path d="M280.986 134.501L272.094 128.868C272.094 128.868 245.568 136.497 238.3 133.348L245.696 122.964L271.978 128.092L280.986 134.501Z" fill="#4CBDB1"/>
<path d="M241.541 59.8104C240.56 61.0499 239.774 62.4314 239.208 63.9075C238.953 64.6893 238.826 65.5043 238.61 66.2971C238.002 68.2714 237.065 70.1289 235.84 71.7913C233.109 75.7665 229.696 79.6031 229.009 84.3766C228.677 86.7328 229.042 89.1279 229.508 91.462C229.759 93.0012 230.199 94.5037 230.815 95.9362C231.519 97.4552 232.566 98.7914 233.369 100.261C234.103 101.703 234.721 103.201 235.219 104.74C236.167 103.792 236.726 102.523 237.485 101.414C238.244 100.305 239.374 99.307 240.71 99.2904C242.25 99.2904 243.518 100.566 245.042 100.765C245.28 100.813 245.526 100.79 245.751 100.699C246.305 100.438 246.349 99.6895 246.305 99.0908C245.867 94.9049 243.474 90.7745 244.604 86.7162C245.646 82.9628 249.369 80.6176 251.324 77.2523C252.743 74.8074 253.164 71.9244 253.54 69.1191C254.011 65.7648 254.488 62.3829 254.277 59.0065C254.172 57.3045 252.82 46.5488 250.349 47.6743C249.491 48.0623 248.743 49.709 248.205 50.4463L245.989 53.5899L241.541 59.8104Z" fill="#4CBDB1"/>
<path d="M175.232 129.196L157.409 143.716L134.479 139.613L149.919 127.482L175.232 129.196Z" fill="#4CBDB1"/>
<path opacity="0.1" d="M175.874 128.292L158.052 142.812L135.122 138.709L150.562 126.579L175.874 128.292Z" fill="#4CBDB1"/>
<path d="M175.747 127.521L157.925 142.036L134.989 137.939L150.434 125.802L175.747 127.521Z" fill="#4CBDB1"/>
<path opacity="0.1" d="M176.262 125.841L158.434 140.361L135.504 136.259L150.95 124.128L176.262 125.841Z" fill="#4CBDB1"/>
<path d="M176.129 125.071L158.307 139.591L135.377 135.488L150.817 123.358L176.129 125.071Z" fill="#4CBDB1"/>
<path d="M410.567 323.468C410.988 323.264 411.451 323.165 411.919 323.181C412.386 323.196 412.842 323.326 413.248 323.558C413.653 323.79 413.996 324.118 414.246 324.513C414.497 324.908 414.647 325.358 414.684 325.825L415.675 338.693L409.792 339.757L406.689 330.454L410.567 323.468Z" fill="#4CBDB1"/>
<path d="M204.727 237.218L114.684 282.946C113.652 283.473 112.786 284.277 112.182 285.267C111.579 286.258 111.261 287.397 111.266 288.557C111.271 289.717 111.597 290.853 112.208 291.839C112.819 292.824 113.692 293.621 114.729 294.14L308.658 391.534C312.108 393.263 315.93 394.117 319.788 394.02C323.645 393.924 327.42 392.879 330.779 390.98L412.462 344.886C413.453 344.32 414.271 343.494 414.827 342.497C415.383 341.5 415.657 340.37 415.619 339.229C415.581 338.088 415.232 336.979 414.61 336.022C413.988 335.065 413.117 334.295 412.091 333.797L210.261 237.157C209.396 236.742 208.447 236.532 207.487 236.543C206.527 236.553 205.583 236.784 204.727 237.218Z" fill="#4CBDB1"/>
<path d="M114.081 274.99L111.261 277.086L111.039 287.121C111.021 287.903 111.224 288.675 111.624 289.347C112.023 290.02 112.604 290.566 113.3 290.924L310.542 392.216C310.989 392.447 311.489 392.559 311.992 392.541C312.495 392.523 312.986 392.376 313.416 392.114C313.846 391.852 314.201 391.483 314.448 391.044C314.695 390.604 314.824 390.109 314.824 389.605V375.029L114.081 274.99Z" fill="#4CBDB1"/>
<path d="M204.727 225.586L114.685 271.309C113.651 271.835 112.784 272.637 112.179 273.626C111.574 274.616 111.255 275.754 111.258 276.914C111.261 278.074 111.585 279.211 112.195 280.198C112.805 281.184 113.676 281.982 114.712 282.503L308.658 379.897C312.109 381.625 315.931 382.478 319.788 382.381C323.645 382.284 327.42 381.241 330.78 379.342L412.462 333.243C413.453 332.677 414.271 331.851 414.827 330.854C415.383 329.858 415.657 328.728 415.619 327.587C415.581 326.445 415.232 325.336 414.61 324.379C413.989 323.422 413.117 322.653 412.091 322.154L210.261 225.52C209.395 225.106 208.446 224.897 207.486 224.908C206.527 224.92 205.583 225.152 204.727 225.586Z" fill="#4CBDB1"/>
<path d="M223.364 233.886L124.152 284.299L294.67 369.623L396.983 317.652L223.364 233.886Z" fill="#4CBDB1"/>
<path d="M357.067 354.111C362.847 354.111 367.532 351.333 367.532 347.907C367.532 344.481 362.847 341.703 357.067 341.703C351.287 341.703 346.602 344.481 346.602 347.907C346.602 351.333 351.287 354.111 357.067 354.111Z" fill="#4CBDB1"/>
<path d="M166.201 250.951C166.737 250.951 167.171 250.516 167.171 249.98C167.171 249.445 166.737 249.01 166.201 249.01C165.666 249.01 165.232 249.445 165.232 249.98C165.232 250.516 165.666 250.951 166.201 250.951Z" fill="#4CBDB1"/>
<path d="M163.298 258.707C163.941 258.707 164.462 258.186 164.462 257.543C164.462 256.9 163.941 256.378 163.298 256.378C162.656 256.378 162.135 256.9 162.135 257.543C162.135 258.186 162.656 258.707 163.298 258.707Z" fill="#4CBDB1"/>
<path fill-rule="evenodd" clip-rule="evenodd" d="M179.399 250.628L167.77 256.055L167.347 255.149L178.976 249.721L179.399 250.628Z" fill="#3F3D56"/>
<path d="M270.571 280.838L237.744 299.805C232.975 302.561 231.34 308.664 234.094 313.437C236.848 318.21 242.947 319.846 247.716 317.09L280.543 298.123C285.313 295.367 286.947 289.264 284.193 284.491C281.439 279.718 275.34 278.082 270.571 280.838Z" fill="#4CBDB1"/>
<path d="M299.933 295.809L267.106 314.776C262.336 317.531 260.702 323.635 263.456 328.408C266.21 333.181 272.309 334.816 277.078 332.06L309.905 313.094C314.674 310.338 316.309 304.235 313.555 299.462C310.801 294.689 304.702 293.053 299.933 295.809Z" fill="#4CBDB1"/>
<path d="M243.979 263.653L211.152 282.62C206.383 285.375 204.749 291.479 207.502 296.252C210.256 301.025 216.355 302.66 221.125 299.905L253.951 280.938C258.721 278.182 260.355 272.079 257.601 267.306C254.848 262.533 248.749 260.897 243.979 263.653Z" fill="#4CBDB1"/>
</g>
<defs>
<clipPath id="clip0">
<rect width="512" height="454" fill="white"/>
</clipPath>
</defs>
</svg>
