<?xml version="1.0" encoding="utf-8"?>
<!-- Generator: Adobe Illustrator 23.1.0, SVG Export Plug-In . SVG Version: 6.00 Build 0)  -->
<svg version="1.1" id="eb1b09ad-1fe0-40ca-8096-34696e14e30a"
	 xmlns="http://www.w3.org/2000/svg" xmlns:xlink="http://www.w3.org/1999/xlink" x="0px" y="0px" viewBox="0 0 1010.9 727.3"
	 style="enable-background:new 0 0 1010.9 727.3;" xml:space="preserve">
<style type="text/css">
	.st0{fill:#4CBDB1;}
	.st1{fill:#F2F2F2;}
	.st2{fill:#FFFFFF;}
	.st3{fill:#E6E6E6;}
	.st4{opacity:0.2;fill:#4CBDB1;enable-background:new    ;}
	.st5{opacity:0.1;fill:#4CBDB1;enable-background:new    ;}
</style>
<title>unlock</title>
<path class="st0" d="M1010.9,727.3c-52.1-7.6-102.2-14.2-150.3-19.7l19-30.8c-6.4-1.9-34.6,15.7-34.6,15.7l25-89.5
	c-32.2,3.1-48.7,94.5-48.7,94.5l-36-31.1l17.4,34.9c-147.2-15.2-274.4-21.2-381.3-21.9l16.3-26.3c-6.4-1.9-34.6,15.7-34.6,15.7
	l25-89.5c-32.2,3.1-48.7,94.5-48.7,94.5l-36-31.1l18.5,36.9c-89.7,1.1-162.8,5.9-219.2,11.5c16.5-41.1,72.4-80,72.4-80
	c-42.7,10.4-65.1,28.2-76.8,44.7c-0.9-50.8,5.1-145,49.9-249.1c0,0-88.3,160.4-77,268.4l1.3,19.2C37.6,702.8,0,712,0,712
	L1010.9,727.3z"/>
<path class="st0" d="M537.5,29.1v648.2c0,16.1-13.1,29.1-29.1,29.1H245.2c-16.1,0-29.1-13-29.1-29c0,0,0-0.1,0-0.1V29.1
	c0-16.1,13-29.1,29.1-29.1c0,0,0,0,0,0h39.4v5.1c0,13.2,10.7,24,24,24h133.8c5.1,0,10.1-1.6,14.2-4.7c0.8-0.6,1.6-1.3,2.4-2
	c4.7-4.5,7.4-10.8,7.4-17.3V0h42C524.5,0,537.5,13,537.5,29.1C537.5,29.1,537.5,29.1,537.5,29.1z"/>
<circle class="st1" cx="289.4" cy="108" r="7"/>
<path class="st2" d="M459,22.4c-0.7,0.7-1.5,1.4-2.4,2c17.3,30.5,46.7,52.3,80.9,60.2v-3.1C504.3,73.6,475.8,52.2,459,22.4z"/>
<path class="st2" d="M399.2,29h-3.3c23.7,60.2,77.6,103.3,141.6,113.1V139C475.2,129.3,422.7,87.5,399.2,29z"/>
<path class="st2" d="M338.8,29h-3.2c26.4,91.7,106.2,160,201.9,171.1v-3C443.5,186.1,365.1,119.1,338.8,29z"/>
<polygon class="st1" points="266.4,159.8 264.6,159.8 264.6,158 264.2,158 264.2,159.8 262.4,159.8 262.4,160.2 264.2,160.2 
	264.2,162 264.6,162 264.6,160.2 266.4,160.2 "/>
<polygon class="st1" points="389.4,68.8 387.6,68.8 387.6,67 387.2,67 387.2,68.8 385.4,68.8 385.4,69.2 387.2,69.2 387.2,71 
	387.6,71 387.6,69.2 389.4,69.2 "/>
<polygon class="st1" points="284.4,231.8 282.6,231.8 282.6,230 282.2,230 282.2,231.8 280.4,231.8 280.4,232.2 282.2,232.2 
	282.2,234 282.6,234 282.6,232.2 284.4,232.2 "/>
<polygon class="st1" points="368.4,178.8 366.6,178.8 366.6,177 366.2,177 366.2,178.8 364.4,178.8 364.4,179.2 366.2,179.2 
	366.2,181 366.6,181 366.6,179.2 368.4,179.2 "/>
<polygon class="st1" points="488.4,211.8 486.6,211.8 486.6,210 486.2,210 486.2,211.8 484.4,211.8 484.4,212.2 486.2,212.2 
	486.2,214 486.6,214 486.6,212.2 488.4,212.2 "/>
<circle class="st2" cx="467.4" cy="125" r="4"/>
<path class="st3" d="M324.1,218.8l-2.3,0.4c0.7,4.5,1.3,9.2,1.7,13.8l2.3-0.2C325.4,228.1,324.8,223.4,324.1,218.8z"/>
<path class="st3" d="M317.9,191.5l-2.2,0.7c1.3,4.4,2.5,8.9,3.5,13.4l2.3-0.5C320.5,200.5,319.3,195.9,317.9,191.5z"/>
<path class="st3" d="M308,165.2l-2.1,1c1.9,4.2,3.7,8.5,5.4,12.8l2.1-0.8C311.8,173.8,310,169.5,308,165.2z"/>
<path class="st3" d="M294.6,140.7l-1.9,1.2c2.5,3.9,4.8,7.9,7,11.9l2-1.1C299.5,148.6,297.1,144.6,294.6,140.7z"/>
<path class="st3" d="M277.9,118.1l-1.8,1.5c3,3.5,5.9,7.2,8.6,10.9l1.8-1.4C283.9,125.4,281,121.7,277.9,118.1z"/>
<path class="st3" d="M258.4,98.1l-1.5,1.7c3.4,3.1,6.8,6.3,10,9.6l1.6-1.6C265.3,104.4,261.8,101.2,258.4,98.1z"/>
<path class="st3" d="M236.2,80.8l-1.3,1.9c3.8,2.6,7.6,5.3,11.2,8.1l1.4-1.8C243.9,86.2,240.1,83.5,236.2,80.8z"/>
<path class="st3" d="M216.1,68.9v2.6c2.4,1.3,4.8,2.6,7.1,3.9l1.1-2C221.6,71.8,218.9,70.3,216.1,68.9z"/>
<path class="st3" d="M323.6,434.8c0.4-2.2,0.7-4.5,1-6.8l2.3,0.3c-0.3,2.3-0.6,4.6-1,6.9L323.6,434.8z"/>
<path class="st3" d="M317.2,461.8l2.2,0.7c1.4-4.4,2.6-9,3.7-13.5l-2.2-0.5C319.8,452.9,318.6,457.4,317.2,461.8z"/>
<path class="st3" d="M307.2,487.6l2.1,1c2-4.2,3.8-8.5,5.5-12.9l-2.1-0.8C311,479.2,309.1,483.5,307.2,487.6z"/>
<path class="st3" d="M293.6,511.8l1.9,1.3c2.5-3.9,5-7.9,7.3-12l-2-1.1C298.6,504,296.2,508,293.6,511.8z"/>
<path class="st3" d="M276.9,534l1.7,1.5c3.1-3.5,6-7.2,8.8-10.9l-1.8-1.4C282.9,526.9,280,530.5,276.9,534z"/>
<path class="st3" d="M257.4,553.6l1.5,1.7c3.5-3.1,7-6.3,10.2-9.6l-1.6-1.6C264.2,547.4,260.8,550.6,257.4,553.6z"/>
<path class="st3" d="M235.3,570.4l1.3,1.9c3.9-2.6,7.7-5.3,11.4-8.1l-1.4-1.8C243,565.2,239.1,567.9,235.3,570.4z"/>
<path class="st3" d="M224.6,579.7c-2.8,1.6-5.6,3.1-8.5,4.5v-2.6c2.5-1.3,4.9-2.6,7.4-3.9L224.6,579.7z"/>
<path class="st3" d="M324.3,247.1l2.3,0c0,2.3,0,4.7,0,6.9l-2.3,0C324.3,251.7,324.3,249.4,324.3,247.1z"/>
<path class="st2" d="M226.2,301.6h235.2c36.5,0,66,29.5,66,66v8.7l0,0H292.2c-36.5,0-66-29.5-66-66c0,0,0,0,0,0L226.2,301.6
	L226.2,301.6z"/>
<path class="st1" d="M382.3,705.5c-0.2-0.4-5.6-9.4-7.5-28.2c-1.7-17.2-0.6-46.2,14.4-86.7c28.5-76.7-6.6-138.5-6.9-139.1l1.7-1
	c0.1,0.2,9.1,15.9,14.5,41c7.1,33.3,4.5,67.9-7.4,99.8c-28.5,76.5-7.3,112.8-7.1,113.1L382.3,705.5z"/>
<circle class="st2" cx="371.2" cy="434" r="13"/>
<circle class="st1" cx="412.2" cy="482" r="13"/>
<circle class="st2" cx="384.2" cy="514" r="13"/>
<circle class="st2" cx="418.2" cy="541" r="13"/>
<circle class="st1" cx="374.2" cy="583" r="13"/>
<path class="st1" d="M390.2,706c0,0-13-32,26-56L390.2,706z"/>
<path class="st1" d="M374.2,705.4c0,0-5.9-34-51.7-33.7L374.2,705.4z"/>
<circle class="st4" cx="322.4" cy="339" r="80"/>
<circle class="st4" cx="322.4" cy="339" r="56.3"/>
<circle class="st0" cx="322.4" cy="339" r="37.2"/>
<path class="st2" d="M329.2,331c0-3.7-3-6.8-6.8-6.8c-3.7,0-6.8,3-6.8,6.8c0,2,0.9,4,2.5,5.2l-2.5,17.4h13.5l-2.5-17.4
	C328.3,334.9,329.2,333,329.2,331z"/>
<path class="st0" d="M696.1,53.3c0,0-22.3-20-52.3,17.7s-76.9,56.1-87.7,70.8c0,0,44.6-18.5,60-26.1s14.6-6.2,14.6-6.2
	s-20.8,14.6-24.6,29.2s-0.8,26.9-7.7,41.5s132.3,10,132.3,10s13.8-23.8,10-48.4S739.2,56.4,696.1,53.3z"/>
<path class="st0" d="M653.9,116.2c0,0,4.8,33.9-15.9,41.6s-13.2,18-13.2,18L656,191l33.3-10.4l11.1-16.6c0,0-18-4.2-13.2-16.6
	s6.2-16.6,6.2-16.6L653.9,116.2z"/>
<path class="st5" d="M653.9,116.2c0,0,4.8,33.9-15.9,41.6s-13.2,18-13.2,18L656,191l33.3-10.4l11.1-16.6c0,0-18-4.2-13.2-16.6
	s6.2-16.6,6.2-16.6L653.9,116.2z"/>
<path class="st0" d="M741.2,213.2c0,0-4.8,63.7-3.5,66.5s0,99.1,0,99.1s9.7,52-2.8,54.7s-9.7-58.2-9.7-58.2l-12.5-80.4l1.4-79.7
	L741.2,213.2z"/>
<path class="st5" d="M741.2,213.2c0,0-4.8,63.7-3.5,66.5s0,99.1,0,99.1s9.7,52-2.8,54.7s-9.7-58.2-9.7-58.2l-12.5-80.4l1.4-79.7
	L741.2,213.2z"/>
<path class="st0" d="M606.1,405.1c0,0-22.9,86.6-22.2,128.9s9.7,101.1,9.7,101.1s1.4,25.6-0.7,28.4c-2.1,2.8,10.4,14.5,10.4,14.5
	l13.2-7.6l4.8-5.5V660c0,0-7.6-23.6-1.4-42.3c6.2-18.7,9.7-65.8,3.5-80.4l43-127.5L606.1,405.1z"/>
<path class="st0" d="M604.7,667c0,0-8.3-10.4-13.9-6.9s-14.5,27-14.5,27s-31.2,29.8-9,31.2s31.9-6.2,34.6-11.8s28.4-20.1,28.4-20.1
	s-2.8-26.3-6.9-27c-4.2-0.7-10.4,10.4-10.4,10.4L604.7,667z"/>
<path class="st0" d="M681.6,410.6v85.9c0.1,10.4,0.8,20.8,2.1,31.2c2.1,15.2-11.8,128.9-11.8,128.9l1.4,20.1l17.3-1.4l2.1-17.3
	l24.9-76.2c0,0,8.3-46.4,4.2-63.7c-4.2-17.3,21.5-128.2,21.5-128.2L681.6,410.6z"/>
<path class="st0" d="M667.8,671.8l5.1-1.1c0,0,3.9-8.6,8.7-6.5c3.4,1.6,6.6,3.5,9.6,5.8l2.1,3.9c0,0,4.8,10.4,11.1,17.3
	c6.2,6.9,13.2,22.2,2.8,23.6c-10.4,1.4-24.2,2.1-28.4-1.4c-4.2-3.5-1.4-9-5.5-10.4c-4.2-1.4-7.6-5.5-6.9-6.9
	S667.8,671.8,667.8,671.8z"/>
<circle class="st0" cx="681.6" cy="109.3" r="30.8"/>
<path class="st0" d="M623.4,163.3l9.2-3.2c0,0-3.6,6,15.8,9.4s39.5,4.7,48.5-6.7c0,0,3.5-1.7,8.3,3.2c4.8,4.8,7.6,3.5,7.6,3.5
	l-3.5,18l-6.9,33.3l-9,24.9l-25.6-5.5l-27.7-20.1l-10.4-27v-24.9L623.4,163.3z"/>
<path class="st0" d="M708,173l6.9-4.8c0,0,23.6,4.2,24.9,15.2l-18,34.6c3.7,9.6,3.4,20.3-0.7,29.8c-6.9,15.9-6.2,19.4-6.2,19.4
	L710,288l-88,6.9c0,0-3.5-8.3-4.8-9.7s-1.4-6.2,0-6.2s0-2.1-1.4-4.2s-2.1-2.8,0-5.5s-3.5-27.7-3.5-27.7v-27l-23.6-31.2
	c0,0,8.3-12.5,12.5-13.9s23.9-6.8,23.9-6.8l4.5,6.6l6.2,50.1l9,30.5l37.9-6.4l14.7-24.7l9.7-29.1L708,173z"/>
<path class="st0" d="M734.3,179.2l5.5,4.2c0,0,4.8,38.8,3.5,41.6s-25.6,5.5-26.3,4.2S734.3,179.2,734.3,179.2z"/>
<path class="st0" d="M620,159.8l6.9,45.7c0,0-6.2,67.9-4.8,81.7l1.4,4.2c0,0-2.8-1.4-3.5,1.4s0,11.8,0,11.8s-4.2,4.2-5.5,27
	s-18,77.6-11.8,79.7s43.6,12.5,63.7,10.4s92.1-26.3,91.4-32.6s-35.3-94.2-35.3-94.2s-6.2-10.4-6.2-11.8s8.3-6.9,6.2-12.5
	S709.3,207,709.3,207l7.6-41.6l-10.4-2.8l-7.6,40.2c0,0-29.8,14.5-61,1.4l-6.9-47.1L620,159.8z"/>
<path class="st0" d="M653.3,87.2c0,0,51.3,35.3,65.1,19.4s-24.2-29.8-24.2-29.8l-31.9-3.5L653.3,87.2z"/>
<path class="st0" d="M573.7,463c12,8.9,28.9,6.4,37.8-5.5c8.9-12,6.4-28.9-5.5-37.8c-12-8.9-28.9-6.4-37.8,5.5
	c-5.9,7.9-7,18.3-2.9,27.3l-70.7,58.9l-9.4-11.2l-4.2,2.8l-4.7-5.6l3.9-3.3l-4.7-5.6l-6,5.1l2.9,3.4l-6.4,5.4l-2.9-3.4l-9.5,8
	l4.3,5.2l3.4-2.9l4.7,5.6l-4.3,3.6l8.7,10.3l-10.3,8.7l10.5,12.5L573.7,463z M591.3,423.5c9.8,0.8,17.1,9.5,16.3,19.3
	c-0.8,9.8-9.5,17.1-19.3,16.3c-9.8-0.8-17.1-9.5-16.3-19.3S581.5,422.7,591.3,423.5L591.3,423.5z"/>
<path class="st0" d="M584,221.5c0,0,4.8,63.7,3.5,66.5s0,99.1,0,99.1s-9.7,52,2.8,54.7s9.7-58.2,9.7-58.2l12.5-80.4l-1.4-79.7
	L584,221.5z"/>
<path class="st0" d="M594.3,181.3l-5.5,2.1c0,0-10.4,43.6-7.6,43.6s36,4.2,36,2.8s-6.2-35.3-6.2-35.3L594.3,181.3z"/>
</svg>
