<svg width="127" height="50" viewBox="0 0 127 50" fill="none" xmlns="http://www.w3.org/2000/svg">
<path d="M51.3919 17.048V23H47.5039V17L40.9999 6.2H45.1279L49.6159 13.664L54.1039 6.2H57.9199L51.3919 17.048ZM63.997 23.192C62.637 23.192 61.413 22.912 60.325 22.352C59.253 21.776 58.413 20.984 57.805 19.976C57.197 18.968 56.893 17.824 56.893 16.544C56.893 15.264 57.197 14.12 57.805 13.112C58.413 12.104 59.253 11.32 60.325 10.76C61.413 10.184 62.637 9.896 63.997 9.896C65.357 9.896 66.573 10.184 67.645 10.76C68.717 11.32 69.557 12.104 70.165 13.112C70.773 14.12 71.077 15.264 71.077 16.544C71.077 17.824 70.773 18.968 70.165 19.976C69.557 20.984 68.717 21.776 67.645 22.352C66.573 22.912 65.357 23.192 63.997 23.192ZM63.997 20.12C64.957 20.12 65.741 19.8 66.349 19.16C66.973 18.504 67.285 17.632 67.285 16.544C67.285 15.456 66.973 14.592 66.349 13.952C65.741 13.296 64.957 12.968 63.997 12.968C63.037 12.968 62.245 13.296 61.621 13.952C60.997 14.592 60.685 15.456 60.685 16.544C60.685 17.632 60.997 18.504 61.621 19.16C62.245 19.8 63.037 20.12 63.997 20.12ZM86.5876 10.088V23H83.0356V21.464C82.5396 22.024 81.9476 22.456 81.2596 22.76C80.5716 23.048 79.8276 23.192 79.0276 23.192C77.3316 23.192 75.9876 22.704 74.9956 21.728C74.0036 20.752 73.5076 19.304 73.5076 17.384V10.088H77.2516V16.832C77.2516 18.912 78.1236 19.952 79.8676 19.952C80.7636 19.952 81.4836 19.664 82.0276 19.088C82.5716 18.496 82.8436 17.624 82.8436 16.472V10.088H86.5876ZM93.6321 11.792C94.0801 11.168 94.6801 10.696 95.4321 10.376C96.2001 10.056 97.0801 9.896 98.0721 9.896V13.352C97.6561 13.32 97.3761 13.304 97.2321 13.304C96.1601 13.304 95.3201 13.608 94.7121 14.216C94.1041 14.808 93.8001 15.704 93.8001 16.904V23H90.0561V10.088H93.6321V11.792Z" fill="white"/>
<path d="M70.9929 44L67.7529 39.32H67.5609H64.1769V44H60.2889V27.2H67.5609C69.0489 27.2 70.3369 27.448 71.4249 27.944C72.5289 28.44 73.3769 29.144 73.9689 30.056C74.5609 30.968 74.8569 32.048 74.8569 33.296C74.8569 34.544 74.5529 35.624 73.9449 36.536C73.3529 37.432 72.5049 38.12 71.4009 38.6L75.1689 44H70.9929ZM70.9209 33.296C70.9209 32.352 70.6169 31.632 70.0089 31.136C69.4009 30.624 68.5129 30.368 67.3449 30.368H64.1769V36.224H67.3449C68.5129 36.224 69.4009 35.968 70.0089 35.456C70.6169 34.944 70.9209 34.224 70.9209 33.296ZM77.6733 31.088H81.4173V44H77.6733V31.088ZM79.5453 29.288C78.8573 29.288 78.2973 29.088 77.8653 28.688C77.4333 28.288 77.2173 27.792 77.2173 27.2C77.2173 26.608 77.4333 26.112 77.8653 25.712C78.2973 25.312 78.8573 25.112 79.5453 25.112C80.2333 25.112 80.7933 25.304 81.2253 25.688C81.6573 26.072 81.8733 26.552 81.8733 27.128C81.8733 27.752 81.6573 28.272 81.2253 28.688C80.7933 29.088 80.2333 29.288 79.5453 29.288ZM92.7401 30.896C94.3401 30.896 95.6281 31.376 96.6041 32.336C97.5961 33.296 98.0921 34.72 98.0921 36.608V44H94.3481V37.184C94.3481 36.16 94.1241 35.4 93.6761 34.904C93.2281 34.392 92.5801 34.136 91.7321 34.136C90.7881 34.136 90.0361 34.432 89.4761 35.024C88.9161 35.6 88.6361 36.464 88.6361 37.616V44H84.8921V31.088H88.4681V32.6C88.9641 32.056 89.5801 31.64 90.3161 31.352C91.0521 31.048 91.8601 30.896 92.7401 30.896ZM114.946 31.088V41.84C114.946 44.208 114.33 45.968 113.098 47.12C111.866 48.272 110.066 48.848 107.698 48.848C106.45 48.848 105.266 48.696 104.146 48.392C103.026 48.088 102.098 47.648 101.362 47.072L102.85 44.384C103.394 44.832 104.082 45.184 104.914 45.44C105.746 45.712 106.578 45.848 107.41 45.848C108.706 45.848 109.658 45.552 110.266 44.96C110.89 44.384 111.202 43.504 111.202 42.32V41.768C110.226 42.84 108.866 43.376 107.122 43.376C105.938 43.376 104.85 43.12 103.858 42.608C102.882 42.08 102.106 41.344 101.53 40.4C100.954 39.456 100.666 38.368 100.666 37.136C100.666 35.904 100.954 34.816 101.53 33.872C102.106 32.928 102.882 32.2 103.858 31.688C104.85 31.16 105.938 30.896 107.122 30.896C108.994 30.896 110.418 31.512 111.394 32.744V31.088H114.946ZM107.866 40.304C108.858 40.304 109.666 40.016 110.29 39.44C110.93 38.848 111.25 38.08 111.25 37.136C111.25 36.192 110.93 35.432 110.29 34.856C109.666 34.264 108.858 33.968 107.866 33.968C106.874 33.968 106.058 34.264 105.418 34.856C104.778 35.432 104.458 36.192 104.458 37.136C104.458 38.08 104.778 38.848 105.418 39.44C106.058 40.016 106.874 40.304 107.866 40.304Z" fill="white"/>
<path d="M11.5941 5C8.38036 5.0604 11.7575 5.00746 11.5941 5C13.7303 5.09166 15.9724 5.37836 18.0553 5.97556C19.7737 6.46867 22.2176 7.22254 23.5029 8.50221C24.3105 9.3076 26.6332 11.2832 24.3691 12.0335C23.2841 12.3931 22.1739 12.3828 21.0537 12.3025C20.0533 12.23 19.1488 12.2005 18.2692 11.7007C17.9132 11.4985 16.5842 10.9759 17.1071 10.3745C17.5871 9.82238 19.6025 10.8924 20.2828 10.8814C20.7134 10.8747 22.6475 10.7311 22.1817 9.96768C21.7121 9.19675 20.7148 8.98217 19.9286 8.68872C17.6372 7.83715 15.275 7.43996 12.8297 7.28081C11.4843 7.19305 10.1382 7.17707 8.79105 7.13728C7.88334 7.10886 6.01607 6.75643 6.22638 8.18957C6.30881 8.75622 6.75999 8.93492 7.1991 9.16407C7.80199 9.47777 8.35798 9.86501 8.97578 10.1577C10.2594 10.7684 11.6161 11.2083 12.9675 11.6406C15.9457 12.5931 19.0003 13.5132 22.1092 13.9104C24.7133 14.2426 27.3391 14.2998 29.9219 13.887C30.7408 13.7566 32.2386 13.3722 32.6589 12.57C33.1846 11.5674 31.1809 10.3183 30.5102 9.86998C28.3317 8.41268 25.8505 7.53873 23.5278 6.46298C23.1605 6.29246 22.9807 6.0658 23.077 5.63841C23.6713 5.3169 24.3538 5.4551 24.9904 5.51123C26.5422 5.8633 27.9722 6.48181 29.4135 7.149C31.5284 8.12882 34.5776 9.4561 35.0221 12.0343C35.4548 14.5485 32.1611 15.6217 30.3496 16.101C30.7639 17.3043 30.9877 18.4969 29.9027 19.4181C28.5033 20.6072 26.8176 20.8814 24.9958 21.0182C23.4351 21.1355 21.9664 20.8839 20.4519 20.8448C19.2771 20.8136 18.2027 20.3404 17.0737 20.1055C15.556 19.7897 14.1481 19.1367 12.6901 18.6418C11.0203 18.0755 9.19747 17.2091 7.80909 16.1092C7.45454 15.8289 7.02893 15.4068 7.16322 14.9059C7.28508 14.4508 7.74621 14.3012 8.17075 14.4078C9.40956 14.7201 10.5606 15.3105 11.7397 15.7848C13.1427 16.3507 14.567 16.9177 15.9969 17.3853C17.2496 17.7945 18.6326 17.9313 19.838 18.3964C21.2378 18.936 23.1832 18.8983 24.6981 18.9161C25.8363 18.9289 27.4116 18.8245 28.4252 18.2326C28.8476 17.9857 29.1179 17.5895 29.1904 17.1035C29.3066 16.3212 29.0323 16.3131 28.3871 16.3639C26.4715 16.5134 24.2984 16.4928 22.3974 16.2406C18.741 15.7557 15.2992 14.752 11.7874 13.6749C10.0718 13.1487 8.13594 12.3913 6.69427 11.3042C5.68318 10.5429 3.93918 9.30902 3.93918 7.9352C3.93918 4.66783 9.40743 5.04086 11.5941 5ZM8.85215 19.8686C9.36764 19.8249 10.2874 20.3869 10.7717 20.6001C11.2019 20.7912 11.6229 20.9685 12.062 21.1173C12.4521 21.2502 12.7164 21.5124 13.083 21.7028C13.1637 21.7444 13.2439 21.7852 13.3242 21.8264C15.6342 22.9821 18.1701 23.6276 20.7628 23.6276C21.9845 23.6276 23.2923 23.5424 24.3108 22.7942C24.8419 22.403 25.5969 21.5579 26.2957 21.5508C27.5615 21.5373 26.7522 23.2209 26.3103 23.6788C25.5511 24.4611 24.838 24.7808 23.8525 25.2103C23.0759 25.5486 23.3445 25.5681 23.3552 26.3095C23.363 26.8716 23.1267 27.3899 22.7878 27.8272C22.23 28.547 21.5753 28.8479 20.7205 29.1257C18.2916 29.9166 15.4029 29.5723 13.0418 28.6877C12.564 28.5086 12.1046 28.2866 11.6452 28.0677C11.404 27.9537 11.1692 27.8287 10.9411 27.6915C10.9127 27.6745 10.5031 27.2247 10.4469 27.1991C10.0302 27.0115 8.62336 25.4136 9.68525 25.324C10.5883 25.2484 11.5007 25.8377 12.3185 26.1451C13.3807 26.5469 14.4302 26.9998 15.5731 27.2762C17.1263 27.651 21.609 28.0379 21.9298 25.6679C20.555 25.5773 19.217 25.9152 17.8592 25.6363C16.3777 25.3336 14.9403 24.8434 13.5726 24.2017C12.3046 23.6074 11.0999 22.888 9.92612 22.1259C9.44367 21.8115 8.7811 21.4357 8.5111 20.9113C8.30611 20.5159 8.2855 19.9162 8.85215 19.8686ZM18.2638 31.8044C19.363 31.8385 20.2143 31.7476 21.0115 31.0037C21.3117 30.7234 21.4424 30.1816 21.5323 29.8018C21.5877 29.5652 21.9536 28.7211 21.9288 28.6028C21.9519 28.7126 22.0275 28.5751 21.9288 28.6028C23.6284 28.1118 23.2599 31.4172 22.8219 32.3029C25.3113 31.9021 24.2209 36.0829 23.2436 36.9604C21.4154 38.6014 18.9332 38.4234 16.7891 37.5484C16.3735 37.3793 15.7109 36.7487 15.8029 36.2559C16.0314 35.037 18.3839 35.8694 19.1371 35.9909C20.2 36.1625 21.2438 36.2154 22.0126 35.3606C22.6663 34.6334 22.7835 33.623 22.694 32.6858C22.6887 32.6255 22.0275 33.0752 21.9625 33.1203C21.5866 33.3836 21.1824 33.6071 20.7788 33.8241C20.5553 33.9438 20.3695 34.0803 20.1329 34.1233C19.5108 34.2323 18.7385 34.2174 18.1004 34.2174C16.7266 34.1346 13.6227 33.8039 12.9821 32.2489C12.2474 30.4661 17.4734 31.7796 18.2638 31.8044ZM24.3193 39.3833C24.3325 39.3762 24.3463 39.3684 24.3602 39.3613C24.7965 39.1204 24.9336 38.3005 24.7268 37.8781C24.5773 37.5729 23.8113 36.6215 24.3016 36.2911C25.1162 35.7411 25.8296 37.0943 26.0385 37.6994C26.3316 38.5499 26.3543 39.4647 26.1394 40.3418C26.7842 39.8 27.4155 40.8012 27.6308 41.3057C28.3623 43.0159 26.2399 44.4398 24.7116 43.8732C24.3648 43.7438 24.0366 43.3907 23.9453 43.0209C23.8188 42.5121 24.0742 42.1796 24.5489 42.2563C24.8292 42.3018 25.4356 42.5054 25.6857 42.3111C25.9852 42.0784 26.0072 41.4232 25.896 41.095C25.7504 40.6662 24.7272 41.4886 24.2817 41.4982C23.5466 41.5121 22.7025 41.5433 22.029 41.1984C21.6364 40.9973 21.2651 40.5163 21.3532 40.0541C21.6176 38.6774 23.4635 39.8103 24.3193 39.3833Z" fill="white"/>
</svg>
