<?xml version="1.0" encoding="utf-8"?>
<!-- Generator: Adobe Illustrator 23.1.0, SVG Export Plug-In . SVG Version: 6.00 Build 0)  -->
<svg version="1.1" id="Слой_1" xmlns="http://www.w3.org/2000/svg" xmlns:xlink="http://www.w3.org/1999/xlink" x="0px" y="0px"
	 viewBox="0 0 1034.9 831.6" style="enable-background:new 0 0 1034.9 831.6;" xml:space="preserve">
<style type="text/css">
	.st0{opacity:0.1;fill:#4CBDB1;enable-background:new    ;}
	.st1{fill:none;stroke:#535461;stroke-width:2;stroke-miterlimit:10;}
	.st2{fill:#4CBDB1;}
	.st3{opacity:0.25;enable-background:new    ;}
	.st4{opacity:0.1;enable-background:new    ;}
	.st5{fill:#E6E8EC;}
	.st6{fill:#DCDFED;}
	.st7{fill:#E3E5F1;}
</style>
<title>envelope</title>
<path class="st0" d="M601.3,95.1C535,93.2,471.8,75.3,411.5,55.8S291.3,14.7,226.5,4.3c-41.6-6.6-89.3-7.6-122.8,11
	C71.4,33.2,61,64.1,55.4,92.8c-4.2,21.6-6.7,44.3,4.9,64.4c8,14,22.3,25.8,32.2,39.2c34.3,46.7,10.1,104.3-27.1,149.9
	c-17.4,21.4-37.7,41.8-51.1,64.6S-5.5,459.8,6.2,483c11.7,23,39.5,40.3,69.6,52.5c61.2,24.7,133.3,31.8,203.6,35.8
	c155.6,8.9,312.1,5,468.2,1.2c57.8-1.4,115.8-2.9,172.6-10.3c31.5-4.1,64.1-10.7,87-26.5c29.1-20.1,36.3-54.1,16.8-79.3
	c-32.7-42.2-123-52.7-145.9-98.1c-12.6-25,0.3-52.8,18.6-75.9c39.2-49.6,104.9-93.2,108.4-149.9c2.4-39-29.2-78-78-96.4
	c-51.2-19.3-122.2-16.9-160,15.1C728.2,84.1,659.9,96.8,601.3,95.1z"/>
<ellipse class="st0" cx="435.5" cy="802.3" rx="290.8" ry="29.3"/>
<path class="st1" d="M169.5,799.1c0,0-12.9-73.1-60.8-109.3c-20.1-15.2-34.8-35.9-41.2-59.4c-3-11.2-5-22.6-5.8-34.1"/>
<path class="st2" d="M31.7,573.3c4,7.8,30.7,23.7,30.7,23.7s3.4-29.6-0.7-37.5s-14-11.1-22.3-7.3S27.7,565.5,31.7,573.3z"/>
<path class="st2" d="M29.1,628.1c7.9,4.5,39.4,4.1,39.4,4.1s-14.2-26.6-22.1-31.1s-18.2-2.1-22.9,5.3S21.2,623.6,29.1,628.1z"/>
<path class="st2" d="M68.3,701.8c9.2,0.1,36.2-15.3,36.2-15.3s-26.5-16.2-35.7-16.3s-16.8,6.8-17,15.5S59.1,701.6,68.3,701.8z"/>
<path class="st2" d="M111.3,751.2c9.1,1.6,38.4-9.3,38.4-9.3s-23.2-20.2-32.3-21.8s-17.8,4-19.5,12.6S102.2,749.6,111.3,751.2z"/>
<path class="st2" d="M100.9,619.3c-3.1,8.2-28,26.5-28,26.5s-6.6-29.1-3.4-37.3s12.7-12.4,21.4-9.5S104.1,611.1,100.9,619.3z"/>
<path class="st2" d="M150.4,677.7c-5.6,6.9-35.1,17.4-35.1,17.4s3-29.7,8.6-36.6c5.8-7,16-8.3,23.4-3c6.9,4.8,8.7,14.2,3.9,21.1
	C150.9,677,150.6,677.4,150.4,677.7z"/>
<path class="st2" d="M190.2,740.7c-4.3,7.7-31.5,22.8-31.5,22.8s-2.4-29.7,1.9-37.4s14.4-10.7,22.5-6.7S194.5,733,190.2,740.7z"/>
<path class="st3" d="M31.7,573.3c4,7.8,30.7,23.7,30.7,23.7s3.4-29.6-0.7-37.5s-14-11.1-22.3-7.3S27.7,565.5,31.7,573.3z"/>
<path class="st3" d="M29.1,628.1c7.9,4.5,39.4,4.1,39.4,4.1s-14.2-26.6-22.1-31.1s-18.2-2.1-22.9,5.3S21.2,623.6,29.1,628.1z"/>
<path class="st3" d="M68.3,701.8c9.2,0.1,36.2-15.3,36.2-15.3s-26.5-16.2-35.7-16.3s-16.8,6.8-17,15.5S59.1,701.6,68.3,701.8z"/>
<path class="st3" d="M111.3,751.2c9.1,1.6,38.4-9.3,38.4-9.3s-23.2-20.2-32.3-21.8s-17.8,4-19.5,12.6S102.2,749.6,111.3,751.2z"/>
<path class="st3" d="M100.9,619.3c-3.1,8.2-28,26.5-28,26.5s-6.6-29.1-3.4-37.3s12.7-12.4,21.4-9.5S104.1,611.1,100.9,619.3z"/>
<path class="st3" d="M150.4,677.7c-5.6,6.9-35.1,17.4-35.1,17.4s3-29.7,8.6-36.6c5.8-7,16-8.3,23.4-3c6.9,4.8,8.7,14.2,3.9,21.1
	C150.9,677,150.6,677.4,150.4,677.7z"/>
<path class="st3" d="M190.2,740.7c-4.3,7.7-31.5,22.8-31.5,22.8s-2.4-29.7,1.9-37.4s14.4-10.7,22.5-6.7S194.5,733,190.2,740.7z"/>
<path class="st1" d="M167.9,797.2c0,0,19.6-71.8-8.6-123.2c-11.8-21.6-16.4-46.1-12.2-70.1c2-11.4,5.2-22.6,9.4-33.4"/>
<path class="st2" d="M138.8,538c0.3,8.7,17.9,33.4,17.9,33.4s15.8-25.8,15.5-34.5s-8.1-15.5-17.3-15.2S138.5,529.3,138.8,538z"/>
<path class="st2" d="M113,587.1c5.3,7.1,34.3,18.8,34.3,18.8s-1.6-29.7-6.9-36.9c-5.5-7.2-15.7-8.9-23.3-3.9
	c-7.1,4.5-9.3,13.9-4.8,21C112.5,586.5,112.7,586.8,113,587.1z"/>
<path class="st2" d="M117.2,669.5c8.4,3.7,39.7-0.1,39.7-0.1s-17.3-24.9-25.7-28.6s-18.3-0.2-22.2,7.7S108.8,665.9,117.2,669.5z"/>
<path class="st2" d="M135.2,731.2c7.6,4.9,39.1,6.3,39.1,6.3s-12.6-27.3-20.2-32.2c-7.6-4.9-17.7-3.2-23.2,4
	c-5,6.8-3.5,16.3,3.3,21.3C134.5,730.7,134.9,730.9,135.2,731.2z"/>
<path class="st2" d="M182.4,606.5c-6.4,6.3-37,13.6-37,13.6s6.5-29.2,12.9-35.4c6.6-6.3,16.8-6.5,23.6-0.4
	c6.3,5.5,6.9,15.1,1.4,21.4C183,605.9,182.7,606.2,182.4,606.5z"/>
<path class="st2" d="M202.5,678.9c-8.1,4.2-39.6,2.5-39.6,2.5s15.4-26,23.5-30.2s18.3-1.4,22.7,6.3S210.6,674.7,202.5,678.9z"/>
<path class="st2" d="M211.9,751.7c-7.2,5.4-38.6,8.8-38.6,8.8s10.6-28.1,17.8-33.5c7.3-5.4,17.5-4.3,23.5,2.5
	c5.4,6.4,4.7,16-1.7,21.4C212.5,751.3,212.2,751.5,211.9,751.7z"/>
<path class="st4" d="M932.1,454.5l-3.7,3c-3.3-5.4-16.6-16.2-16.6-16.2l0.6-0.6c1.2-0.3,1.9-0.5,1.9-0.5L932.1,454.5z"/>
<circle class="st5" cx="689.3" cy="336.1" r="0.4"/>
<path class="st6" d="M499.6,214.4L238,384l170.7,307.8c1.6,2.9,4.4,5,7.6,5.8l154.6,37.7c5.5,1.3,11.1-1.3,13.5-6.4l76.7-159.4
	l84.1-112.4l-199.5-236C534.3,207.7,514.5,204.7,499.6,214.4z"/>
<path class="st4" d="M747.9,458.6l-0.7,1l-49.2,65.8l-0.9,1.2L663.8,571l-65.6,136.3l-1.8,3.8l-9.3,19.2c-2.4,5.1-8.1,7.7-13.6,6.4
	L418.9,699c-3.2-0.8-6-2.9-7.6-5.8l-14.9-26.8l-2.7-4.8L286.5,467.9l-0.9-1.6l-44.9-80.9l5.4-3.5l41.1-26.6l1-0.6l86.5-56.1l5.5-3.5
	l122-79.2c14.9-9.7,34.7-6.8,46.2,6.8l91,107.7l4,4.8l66.1,78.1l0.4,0.4l33.2,39.3l4.2,5L747.9,458.6z"/>
<path class="st4" d="M707.3,412.3l-8.1,56l-2.4,16.9l-1.4,36l-0.1,2.8L688,712.1c-0.3,6.6-5.8,11.7-12.4,11.4
	c-0.7,0-1.4-0.1-2.1-0.3l-77.9-17.4l-0.8-0.2l-199.9-44.6l-3.7-0.8l-109.9-24.5l2.5-169.1l0.1-5.6l0.8-51.2l0.8-56.5l86.5-56.1
	l5.5-3.5c80.3,8.2,187,24.1,259.3,35.4l4,4.8l66,78.1L707.3,412.3z"/>
<path class="st2" d="M716.4,345.9l-9.5,66l-8.7,60.4l-2.4,16.9l-1.4,36L687,716.1c-0.3,6.6-5.8,11.7-12.4,11.4
	c-0.7,0-1.4-0.1-2.1-0.3l-78.8-17.6l-199.9-44.6l-113.6-25.4l2.6-174.8l0.8-51.2l0.9-59.9l0.9-61.6c18.8-0.9,49.7,1.1,86.6,4.8
	c82.6,8.3,195.2,25.1,268.8,36.6C685.9,340.8,716.4,345.9,716.4,345.9z"/>
<path class="st4" d="M740.5,451.6l-42.3,20.7L482.5,578.1L283.7,413.8l-40.2-33.3L238,384l44.9,80.9l-2.6,174.8l113.6,25.4
	l14.8,26.8c1.6,2.9,4.4,5,7.6,5.8l154.6,37.7c5.5,1.3,11.1-1.4,13.5-6.4l9.3-19.2l78.8,17.6c6.4,1.4,12.8-2.6,14.2-9.1
	c0.2-0.7,0.2-1.4,0.3-2.1l7.3-190.9l50.1-67l0.1-1.7L740.5,451.6z"/>
<path class="st6" d="M238,384l-17.8,305.3c-0.3,5.8,3.6,11.1,9.3,12.3L703,806.9c6.4,1.4,12.8-2.7,14.2-9.1c0.1-0.5,0.2-1,0.2-1.6
	l27.8-339L482.5,586.1L238,384z"/>
<path class="st4" d="M223.5,696.4l246-151.8c7.5-4.6,17.2-3,23,3.6L712.7,805c0.8,0.9,1.2,0.3,0,0L223.5,696.4
	C222.1,696.1,222.3,697.1,223.5,696.4z"/>
<path class="st7" d="M225.2,696.1L468.7,549c7.9-4.8,18.2-3.2,24.3,3.8l218.2,250.9c1,1.1,0.8,2.8-0.3,3.7c-0.6,0.5-1.5,0.8-2.3,0.6
	L226,700.9c-1.4-0.3-2.3-1.7-2-3.1C224.2,697.1,224.6,696.5,225.2,696.1z"/>
</svg>
