<svg width="421" height="317" viewBox="0 0 421 317" fill="none" xmlns="http://www.w3.org/2000/svg">
<g clip-path="url(#clip0)">
<path opacity="0.4" d="M355.321 121.874C360.892 121.874 365.408 117.349 365.408 111.768C365.408 106.187 360.892 101.662 355.321 101.662C349.749 101.662 345.233 106.187 345.233 111.768C345.233 117.349 349.749 121.874 355.321 121.874Z" fill="#565987"/>
<path opacity="0.4" d="M142.63 66.2742C150.572 66.2742 157.011 59.8241 157.011 51.8676C157.011 43.9111 150.572 37.4611 142.63 37.4611C134.688 37.4611 128.25 43.9111 128.25 51.8676C128.25 59.8241 134.688 66.2742 142.63 66.2742Z" fill="#565987"/>
<path opacity="0.4" d="M116.016 68.8544C121.587 68.8544 126.104 64.3297 126.104 58.7483C126.104 53.1669 121.587 48.6422 116.016 48.6422C110.445 48.6422 105.928 53.1669 105.928 58.7483C105.928 64.3297 110.445 68.8544 116.016 68.8544Z" fill="#565987"/>
<path d="M363.769 224.78C355.799 233.523 355.509 246.258 355.509 246.258C355.509 246.258 368.143 244.818 376.114 236.076C384.084 227.334 384.374 214.599 384.374 214.599C384.374 214.599 371.74 216.038 363.769 224.78Z" fill="#565987"/>
<path d="M368.272 227.296C365.86 238.887 355.721 246.574 355.721 246.574C355.721 246.574 349.493 235.469 351.905 223.878C354.317 212.287 364.456 204.599 364.456 204.599C364.456 204.599 370.684 215.705 368.272 227.296Z" fill="#565987"/>
<path d="M357.92 107.69V245.868L311.944 283.917H76.7368V139.064L145.367 107.69H357.92Z" fill="#565987"/>
<path opacity="0.1" d="M357.92 107.69V108.244L341.415 119.312L311.944 139.064H76.7368L145.367 107.69H357.92Z" fill="#565987"/>
<path opacity="0.1" d="M357.92 107.69V245.868L311.944 283.917L312.278 138.73L341.415 119.312L357.653 107.69H357.92Z" fill="#565987"/>
<path d="M295.953 126.715H152.696L163.357 120.707H300.617L295.953 126.715Z" fill="#565987"/>
<path d="M419.594 291.433C419.594 291.433 422.371 303.068 419.846 303.574C417.321 304.08 404.95 303.916 401.92 304.422C398.891 304.928 392.579 304.08 392.579 301.803C392.579 299.527 399.143 298.009 399.143 298.009C399.143 298.009 408.485 292.95 408.737 292.698C408.99 292.445 419.594 291.433 419.594 291.433Z" fill="#565987"/>
<path d="M417.321 222.888C417.321 222.888 416.564 231.487 416.564 232.246C416.564 233.005 417.321 244.893 416.564 245.399C415.806 245.905 417.069 249.446 417.069 250.71C417.069 251.975 421.108 272.969 420.098 281.063C419.088 289.156 421.613 288.398 420.856 289.156C420.098 289.915 420.098 289.915 420.098 291.433C420.098 292.95 412.019 294.215 412.019 294.215L403.183 238.317L407.727 221.623L417.321 222.888Z" fill="#565987"/>
<path opacity="0.1" d="M417.321 222.888C417.321 222.888 416.564 231.487 416.564 232.246C416.564 233.005 417.321 244.893 416.564 245.399C415.806 245.905 417.069 249.446 417.069 250.71C417.069 251.975 421.108 272.969 420.098 281.063C419.088 289.156 421.613 288.398 420.856 289.156C420.098 289.915 420.098 289.915 420.098 291.433C420.098 292.95 412.019 294.215 412.019 294.215L403.183 238.317L407.727 221.623L417.321 222.888Z" fill="#565987"/>
<path d="M416.059 294.974C416.059 294.974 418.584 304.08 416.059 304.585C413.534 305.091 401.163 304.006 398.133 304.512C395.104 305.018 388.792 305.091 388.792 302.815C388.792 300.538 395.356 299.021 395.356 299.021C395.356 299.021 404.698 293.962 404.95 293.709C405.203 293.456 416.059 294.974 416.059 294.974Z" fill="#565987"/>
<path d="M419.593 212.77C419.593 212.77 422.623 220.105 419.089 223.899C415.554 227.693 411.514 235.281 411.514 235.787C411.514 236.293 418.584 286.627 417.574 289.915C416.564 293.203 416.816 295.227 417.069 295.733C417.321 296.239 414.544 299.021 411.514 299.021C408.485 299.021 403.94 296.744 403.435 294.721C402.93 292.697 404.193 275.245 403.94 271.957C403.688 268.669 402.425 263.863 401.92 262.851C401.415 261.84 398.638 260.828 398.133 257.793C397.628 254.757 393.589 216.058 394.851 214.794C396.113 213.529 419.593 212.77 419.593 212.77Z" fill="#565987"/>
<path d="M400.406 154.595C405.147 154.595 408.99 150.745 408.99 145.996C408.99 141.246 405.147 137.396 400.406 137.396C395.665 137.396 391.822 141.246 391.822 145.996C391.822 150.745 395.665 154.595 400.406 154.595Z" fill="#565987"/>
<path d="M405.708 150.296C405.708 150.296 403.94 159.654 405.203 160.666C406.465 161.678 395.609 163.195 395.609 163.195C395.609 163.195 394.346 150.801 394.094 149.537C393.841 148.272 405.708 150.296 405.708 150.296Z" fill="#565987"/>
<path d="M394.094 162.436C394.094 162.436 397.123 153.584 409.494 156.113C409.494 156.113 411.767 156.872 411.009 157.631C410.252 158.389 409.494 158.389 410.504 159.148C411.514 159.907 412.777 159.148 412.019 159.907C411.262 160.666 418.836 165.219 418.331 173.818C417.826 182.418 420.098 194.559 418.331 196.582C416.564 198.606 419.593 207.459 419.089 209.229C418.584 211 422.118 213.276 420.603 214.035C419.088 214.794 391.821 219.347 391.064 214.035C390.307 208.723 390.811 212.517 390.054 211.253C389.297 209.988 389.044 207.712 389.549 204.929C390.054 202.147 391.316 195.318 390.811 192.788C390.307 190.259 390.811 169.013 392.326 166.483C393.841 163.954 394.094 162.436 394.094 162.436Z" fill="#565987"/>
<path d="M399.396 224.152C399.396 224.152 403.183 238.57 398.386 238.57C393.589 238.57 393.841 223.646 393.841 223.646L399.396 224.152Z" fill="#565987"/>
<path d="M396.618 145.996C396.618 146.729 397.679 147.195 399.322 147.301H399.325C400.022 147.34 400.721 147.327 401.415 147.26C402.466 147.164 402.9 148.153 403.079 149.458C403.372 151.611 402.963 154.628 403.435 155.101C404.087 155.754 408.836 155.099 410.32 153.619C410.551 153.412 410.705 153.132 410.757 152.825C410.913 151.921 411.358 151.093 412.024 150.465C412.9 149.506 414.148 148.444 415.554 146.754C418.079 143.719 415.554 143.466 414.797 141.19C414.039 138.914 412.777 138.155 412.777 136.637C412.777 135.12 406.97 133.855 402.173 134.108C397.376 134.361 398.386 140.431 398.386 140.431C398.386 140.431 398.1 141.165 397.76 142.111C397.299 143.298 396.924 144.517 396.639 145.758C396.627 145.837 396.62 145.916 396.618 145.996Z" fill="#565987"/>
<path opacity="0.1" d="M397.628 166.23C397.628 166.23 406.212 165.725 406.97 178.371C407.727 191.018 407.475 202.906 407.475 203.159C407.475 203.412 403.94 227.44 400.658 227.44C397.376 227.44 394.851 226.935 394.094 225.67C393.336 224.405 396.114 206.194 396.114 206.194C396.114 206.194 397.376 186.971 395.356 180.901C393.336 174.83 393.084 166.989 397.628 166.23Z" fill="#565987"/>
<path d="M396.366 164.966C396.366 164.966 404.95 164.46 405.707 177.107C406.465 189.753 406.212 201.641 406.212 201.894C406.212 202.147 402.678 226.176 399.396 226.176C396.113 226.176 393.589 225.67 392.831 224.405C392.074 223.141 394.851 204.929 394.851 204.929C394.851 204.929 396.113 185.706 394.094 179.636C392.074 173.565 391.821 165.725 396.366 164.966Z" fill="#565987"/>
<path d="M254.023 41.3283C254.023 41.3283 250.282 30.7095 247.58 34.0409C244.878 37.3723 251.736 42.994 251.736 42.994L254.023 41.3283Z" fill="#565987"/>
<path d="M271.689 30.9177L269.438 31.7533C269.438 31.7533 268.363 36.5395 268.779 37.3723C269.195 38.2052 269.402 37.5805 268.779 39.2462C268.155 40.9119 266.285 45.2844 266.077 45.909C265.869 46.5336 254.023 41.953 254.023 39.6626C254.023 39.6626 251.529 42.5776 250.282 43.2023C250.282 43.2023 263.999 53.1964 265.869 54.4457C267.74 55.695 268.779 55.0704 270.442 53.6129C272.104 52.1554 279.171 40.0791 279.171 40.0791L271.689 30.9177Z" fill="#565987"/>
<path d="M265.661 104.833C265.661 104.833 265.869 107.123 266.285 107.332C266.701 107.54 269.818 112.745 266.285 113.786C262.752 114.827 260.673 114.411 259.842 114.827C259.011 115.244 244.462 116.077 244.255 113.786C244.047 111.496 251.321 111.079 251.321 111.079C251.321 111.079 257.972 106.707 259.011 104.417C260.05 102.126 265.661 104.833 265.661 104.833Z" fill="#565987"/>
<path d="M307.851 108.997C307.851 108.997 312.839 117.534 311.592 118.575C310.345 119.616 298.201 123.41 296.421 123.572C294.134 123.78 292.472 121.906 294.342 120.865C296.213 119.824 300.162 115.452 300.162 113.994V110.247L307.851 108.997Z" fill="#565987"/>
<path d="M312.632 53.1964C312.632 53.1964 316.996 58.6099 310.138 67.3548L298.707 81.9297C298.707 81.9297 305.773 93.1732 305.981 99.0031C306.189 104.833 307.644 103.584 308.059 106.082C308.475 108.581 310.345 107.332 308.891 109.206C307.436 111.079 302.032 112.745 300.369 111.288C299.798 110.764 299.351 110.117 299.063 109.396C298.775 108.675 298.653 107.898 298.707 107.123C298.707 106.291 295.797 101.502 295.589 100.044C295.381 98.5867 287.692 86.7186 287.692 86.7186C287.692 86.7186 285.198 79.6394 288.107 75.6833C291.017 71.7273 292.94 66.1165 292.94 66.1165C292.94 66.1165 284.366 76.5162 278.339 79.0147C278.339 79.0147 276.053 79.4312 276.469 80.4722C276.884 81.5133 276.469 82.1379 275.845 83.179C275.222 84.2201 270.857 96.2964 269.402 99.4196C267.948 102.543 268.571 104.417 266.908 105.458C265.246 106.499 257.764 105.666 257.764 104.625C257.764 103.584 258.803 100.877 259.426 99.4196C260.05 97.9621 265.038 81.0969 264.622 78.1819C264.206 75.2669 264.83 71.3109 267.948 69.6452C271.065 67.9795 286.86 54.4457 287.692 54.4457C288.523 54.4457 312.632 53.1964 312.632 53.1964Z" fill="#565987"/>
<path d="M270.857 20.5071C275.678 20.5071 279.586 16.5918 279.586 11.7621C279.586 6.93245 275.678 3.01721 270.857 3.01721C266.036 3.01721 262.128 6.93245 262.128 11.7621C262.128 16.5918 266.036 20.5071 270.857 20.5071Z" fill="#565987"/>
<path d="M277.923 12.595C277.923 12.595 280.625 17.3839 283.951 18.0085C287.276 18.6332 275.222 28.2109 275.222 28.2109C275.222 28.2109 272.312 19.0496 269.818 18.6332C267.324 18.2167 277.923 12.595 277.923 12.595Z" fill="#565987"/>
<path d="M269.402 32.167C269.402 34.8737 277.508 42.5776 277.508 42.5776L285.198 49.0322C285.198 49.0322 285.405 51.3225 286.237 51.5307C287.068 51.7389 288.107 51.7389 287.276 52.9882C286.445 54.2375 284.366 56.9442 286.237 57.3606C286.801 57.4466 287.369 57.5008 287.939 57.523C288.438 57.5522 289.024 57.5793 289.683 57.6043C291.221 57.6584 293.145 57.6938 295.23 57.6792C295.822 57.6771 296.425 57.6702 297.038 57.6584C304.896 57.5022 313.999 56.5965 313.255 53.6128C312.008 48.6157 312.839 46.95 310.138 44.2433C307.436 41.5365 303.071 32.167 303.071 32.167C303.071 32.167 294.342 17.3839 287.068 17.3839L285.557 16.9862C284.855 16.8009 284.113 16.8416 283.435 17.1024C282.757 17.3632 282.179 17.831 281.781 18.4395C280.322 20.6653 278.021 24.0092 276.676 25.0877C274.598 26.7534 274.274 25.5583 274.274 25.5583C274.274 25.5583 269.402 29.4602 269.402 32.167Z" fill="#565987"/>
<path d="M287.899 63.8152C287.899 63.8152 281.872 73.1847 285.613 74.8504C289.354 76.5161 291.433 65.0645 291.433 65.0645L287.899 63.8152Z" fill="#565987"/>
<path d="M276.564 10.7744C276.229 10.732 276.123 10.3085 276.066 9.97501C275.764 8.18892 274.436 6.49521 272.65 6.20688C271.968 6.11594 271.274 6.17196 270.615 6.3712C269.671 6.63072 268.785 7.06771 268.004 7.65888C267.622 8.00888 267.18 8.28697 266.699 8.47981C266.372 8.57617 264.981 9.1956 264.656 9.30041C263.941 9.53084 263.35 10.28 262.614 10.1317C261.91 9.98976 261.643 9.13816 261.53 8.42777C261.272 6.80938 262.197 4.39459 263.116 3.03899C263.814 2.01029 264.994 1.41825 266.175 1.0331C267.558 0.612573 268.978 0.329729 270.417 0.18867C272.358 -0.041053 274.369 -0.162933 276.23 0.438315C278.091 1.03956 279.785 2.51035 280.132 4.43784C280.205 4.83935 280.218 5.25061 280.307 5.64883C280.523 6.62027 281.165 7.43683 281.539 8.35882C281.809 9.03596 281.934 9.76227 281.907 10.4909C281.88 11.2196 281.7 11.9344 281.38 12.5893C280.862 13.6334 279.961 14.6367 280.155 15.7864L278.551 14.5194C278.32 14.3875 278.14 14.1799 278.042 13.9314C277.945 13.6828 277.936 13.4083 278.016 13.1536L278.249 11.1417C278.33 10.7772 278.293 10.3965 278.145 10.054C277.432 8.80651 277.122 10.845 276.564 10.7744Z" fill="#565987"/>
<path opacity="0.1" d="M291.64 49.4486L289.683 57.6043C291.657 57.6751 294.269 57.7126 297.038 57.6585C297.736 55.5597 298.403 53.3714 298.915 51.3226C300.785 43.8269 297.668 32.3752 296.005 26.9617C294.342 21.5482 290.186 20.0907 290.186 20.0907C288.481 20.6911 286.872 21.5324 285.405 22.5892C282.704 24.4632 291.64 49.4486 291.64 49.4486Z" fill="#565987"/>
<path opacity="0.1" d="M289.978 49.0321L287.939 57.523C288.438 57.5522 289.024 57.5792 289.683 57.6042C291.221 57.6584 293.145 57.6938 295.23 57.6792C295.98 55.4492 296.705 53.0964 297.252 50.906C299.123 43.4104 296.005 31.9587 294.342 26.5452C292.68 21.1317 289.043 27.0657 289.043 27.0657C289.043 27.0657 290.497 23.5261 287.796 25.4C285.094 27.2739 289.978 49.0321 289.978 49.0321Z" fill="#565987"/>
<path d="M289.354 19.6742C289.354 19.6742 293.511 21.1317 295.174 26.5452C296.836 31.9587 299.954 43.4104 298.083 50.906C296.213 58.4017 292.264 67.7712 292.264 67.7712C292.264 67.7712 288.315 64.8563 286.86 65.4809L290.809 49.0321C290.809 49.0321 281.872 24.0467 284.574 22.1727C286.04 21.1159 287.65 20.2746 289.354 19.6742Z" fill="#565987"/>
<path d="M292.452 124.112L234.952 4.07007L138.806 50.2926L174.166 124.112H292.452Z" fill="#565987"/>
<path d="M215.493 51.1892L164.427 75.7396L165.948 78.915L217.014 54.3646L215.493 51.1892Z" fill="#565987"/>
<path d="M229.014 79.4151L177.948 103.966L179.469 107.141L230.535 82.5906L229.014 79.4151Z" fill="#565987"/>
<path d="M238.301 34.5812L225.623 40.6765L231.707 53.3782L244.386 47.2829L238.301 34.5812Z" fill="#565987"/>
<path d="M251.822 62.8072L239.143 68.9025L245.227 81.6041L257.906 75.5089L251.822 62.8072Z" fill="#565987"/>
<path d="M239.175 25.7832L233.953 40.6665L226.915 38.188L225.951 40.9335L235.722 44.3733L241.915 26.7482L239.175 25.7832Z" fill="#565987"/>
<path d="M252.695 54.009L247.474 68.8923L240.435 66.4142L239.472 69.1593L249.242 72.5991L255.436 54.974L252.695 54.009Z" fill="#565987"/>
<path d="M5.5492 262.272L31.5276 256.713L25.9784 230.687L9.10905e-06 236.246L5.5492 262.272Z" fill="#565987"/>
<path d="M30.8051 223.733C30.8051 223.733 21.2631 230.561 24.4438 233.293C27.6244 236.024 33.9857 225.099 33.9857 225.099L30.8051 223.733Z" fill="#565987"/>
<path d="M74.8797 234.203C74.8797 234.203 73.0622 256.963 72.6079 260.15C72.1535 263.336 71.6991 292.014 70.7903 295.201C69.8816 298.387 68.9728 306.126 68.9728 306.126H63.5203C63.5203 306.126 63.9747 292.014 62.6116 286.552C61.2484 281.089 61.7028 266.068 61.7028 266.068C61.7028 266.068 58.9765 239.21 60.3397 235.569C61.7028 231.927 74.8797 234.203 74.8797 234.203Z" fill="#565987"/>
<path d="M67.6095 304.76C67.6095 304.76 69.8814 306.126 69.8814 307.036C69.8814 307.946 69.427 310.222 69.8814 311.133C70.3358 312.043 73.5164 315.685 71.6989 316.595C69.8814 317.506 61.7026 316.595 61.7026 316.595C61.7026 316.595 62.157 310.222 62.6114 309.767C63.0658 309.312 62.157 304.76 62.157 304.76H67.6095Z" fill="#565987"/>
<path d="M40.1451 233.645C40.1451 233.645 39.5678 256.471 39.6859 259.688C39.8039 262.904 37.251 291.472 37.8209 294.736C38.3907 298 38.4837 305.792 38.4837 305.792L43.9061 306.365C43.9061 306.365 44.9327 292.284 46.8607 286.995C48.7886 281.706 49.9106 266.719 49.9106 266.719C49.9106 266.719 55.4358 240.297 54.4618 236.532C53.4877 232.768 40.1451 233.645 40.1451 233.645Z" fill="#565987"/>
<path d="M39.9825 304.577C39.9825 304.577 37.5801 305.696 37.4847 306.601C37.3893 307.507 37.6027 309.818 37.0554 310.676C36.5082 311.533 32.9636 314.82 34.6756 315.917C36.3877 317.013 44.6167 316.968 44.6167 316.968C44.6167 316.968 44.8325 310.583 44.4284 310.082C44.0242 309.582 45.4049 305.15 45.4049 305.15L39.9825 304.577Z" fill="#565987"/>
<path d="M68.5185 200.063C68.5185 200.063 72.1535 200.518 73.5166 208.256C74.8798 215.995 79.8779 235.569 75.7885 236.934C71.6991 238.3 59.4309 241.031 58.9766 240.121C58.5222 239.21 57.6134 236.934 57.6134 236.934C57.6134 236.934 58.9766 241.031 57.1591 241.031C55.3416 241.031 37.6209 238.3 38.0752 236.934C38.5296 235.569 39.4383 225.554 39.4383 225.554C39.4383 225.554 42.1646 208.712 44.8909 205.98C45.6799 205.221 46.2924 204.298 46.6851 203.275C47.0777 202.252 47.2408 201.156 47.1628 200.063H68.5185Z" fill="#565987"/>
<path d="M75.3341 196.421C75.3341 196.421 69.4272 195.055 68.5184 196.876C67.6096 198.697 70.7903 201.428 72.1534 201.428C73.5165 201.428 75.7884 200.063 75.7884 200.063L75.3341 196.421Z" fill="#565987"/>
<path d="M63.0658 157.729C67.5828 157.729 71.2445 154.06 71.2445 149.535C71.2445 145.01 67.5828 141.341 63.0658 141.341C58.5487 141.341 54.887 145.01 54.887 149.535C54.887 154.06 58.5487 157.729 63.0658 157.729Z" fill="#565987"/>
<path d="M61.7027 155.453C61.7027 155.453 60.3396 161.825 61.2483 161.825C62.1571 161.825 54.4327 165.922 54.4327 165.922L48.5258 165.012L46.7083 162.281C46.7083 162.281 56.2502 155.908 56.2502 152.266C56.2502 148.624 61.7027 155.453 61.7027 155.453Z" fill="#565987"/>
<path d="M57.6135 161.825C57.6135 161.825 58.9766 160.915 59.431 160.915H63.066C63.5204 160.915 69.4273 162.281 69.4273 162.281L73.0623 182.765C73.0623 182.765 66.701 193.235 71.2448 201.428C71.2448 201.428 69.8817 200.518 63.5204 200.973C57.1591 201.428 45.7997 202.794 45.3453 202.794C44.8909 202.794 44.8909 199.152 45.3453 198.242C45.7997 197.331 44.8909 197.787 44.8909 195.511C44.8909 193.235 43.5278 189.138 43.5278 189.138L37.1665 165.922C37.1665 165.922 45.3453 161.37 46.7084 161.825C48.0716 162.281 52.161 163.646 53.0697 163.191C53.9785 162.736 57.6135 161.825 57.6135 161.825Z" fill="#565987"/>
<path d="M68.064 162.736L69.4271 162.281C69.4271 162.281 72.1533 161.825 75.334 164.557C78.5146 167.288 90.3285 175.482 90.3285 175.482C90.3285 175.482 94.8722 179.123 93.5091 183.22C92.146 187.317 89.8741 197.331 83.0584 196.876C83.0584 196.876 78.969 202.339 76.6971 201.428C74.4253 200.518 72.6077 196.876 73.9709 196.421C75.334 195.966 78.969 191.414 78.969 191.414L74.4253 182.765H73.0621L68.064 180.034L68.064 162.736Z" fill="#565987"/>
<path d="M40.8014 165.467L37.1663 165.922C37.1663 165.922 33.9857 167.288 34.4401 173.206C34.8945 179.123 31.7138 205.98 33.077 209.167C33.077 209.167 28.5332 224.644 29.4419 225.099C30.3507 225.554 35.8032 228.285 35.3488 226.465C34.8945 224.644 40.347 211.898 40.347 211.898C40.347 211.898 46.7083 205.07 43.982 195.511V187.772L40.8014 165.467Z" fill="#565987"/>
<path d="M69.8727 157.457L64.0964 158.717L63.3541 155.868L63.6395 158.817L54.3211 160.851L53.9113 159.278L54.0688 160.906L48.1004 162.209L46.8237 149.93C45.511 144.892 50.3016 139.522 55.3309 138.207L57.562 137.623C61.2558 136.657 67.9701 137.536 68.9342 141.236C67.2468 147.688 64.3704 154.761 69.8727 157.457Z" fill="#565987"/>
</g>
<defs>
<clipPath id="clip0">
<rect width="421" height="317" fill="white"/>
</clipPath>
</defs>
</svg>
